<svg xmlns="http://www.w3.org/2000/svg" xmlns:xlink="http://www.w3.org/1999/xlink" width="6912" zoomAndPan="magnify" viewBox="0 0 5184 2592.000001" height="3456" preserveAspectRatio="xMidYMid meet" version="1.0"><defs><clipPath id="id1"><path d="M 1 0 L 5183 0 L 5183 2591 L 1 2591 Z M 1 0 " clip-rule="nonzero"/></clipPath><clipPath id="id2"><path d="M 3606.410156 124.25 L 5183 124.25 L 5183 2591 L 3606.410156 2591 Z M 3606.410156 124.25 " clip-rule="nonzero"/></clipPath><clipPath id="id3"><path d="M 4124.519531 738 L 5183 738 L 5183 2591 L 4124.519531 2591 Z M 4124.519531 738 " clip-rule="nonzero"/></clipPath><clipPath id="id4"><path d="M 3971 488 L 5183 488 L 5183 2126 L 3971 2126 Z M 3971 488 " clip-rule="nonzero"/></clipPath><clipPath id="id5"><path d="M 3665 124.25 L 5183 124.25 L 5183 2591 L 3665 2591 Z M 3665 124.25 " clip-rule="nonzero"/></clipPath><clipPath id="id6"><path d="M 3606.410156 206 L 5183 206 L 5183 2591 L 3606.410156 2591 Z M 3606.410156 206 " clip-rule="nonzero"/></clipPath><clipPath id="id7"><path d="M 3072 1011 L 4395 1011 L 4395 2591 L 3072 2591 Z M 3072 1011 " clip-rule="nonzero"/></clipPath><clipPath id="id8"><path d="M 3075 1011 L 4395 1011 L 4395 2591 L 3075 2591 Z M 3075 1011 " clip-rule="nonzero"/></clipPath><clipPath id="id9"><path d="M 3072.109375 1093 L 4341 1093 L 4341 2591 L 3072.109375 2591 Z M 3072.109375 1093 " clip-rule="nonzero"/></clipPath></defs><g clip-path="url(#id1)"><path fill="#ffffff" d="M 1 0 L 5183 0 L 5183 2598.496094 L 1 2598.496094 Z M 1 0 " fill-opacity="1" fill-rule="nonzero"/></g><path fill="#56aeff" d="M 1 0 L 5183 0 L 5183 2591 L 1 2591 Z M 1 0 " fill-opacity="1" fill-rule="nonzero"/><path fill="#ffffff" d="M 1 0 L 5183 0 L 5183 2591 L 1 2591 Z M 1 0 " fill-opacity="1" fill-rule="nonzero"/><path fill="#56aeff" d="M 1 0 L 5183 0 L 5183 2591 L 1 2591 Z M 1 0 " fill-opacity="1" fill-rule="nonzero"/><g clip-path="url(#id2)"><path fill="#e99189" d="M 5623.207031 2458.703125 L 5623.207031 2458.824219 C 5623.066406 2458.984375 5622.945312 2459.125 5622.824219 2459.269531 C 5608.351562 2479.511719 5591.917969 2496.65625 5573.5625 2509.894531 C 5493.234375 2582.804688 5438.691406 2585.378906 5438.671875 2585.378906 C 5348.449219 2624.789062 5236.871094 2651.367188 5190.164062 2580.09375 C 5185.367188 2572.785156 5181.378906 2564.648438 5178.140625 2555.84375 C 5161.078125 2599.039062 5134.527344 2644.121094 5093.136719 2678.371094 C 4961.851562 2682.964844 4886.949219 2623.167969 4861.46875 2598.109375 C 4818.117188 2605.234375 4758.210938 2613.3125 4688.367188 2617.867188 C 4688.367188 2617.886719 4688.367188 2617.886719 4688.367188 2617.886719 C 4688.507812 2620.03125 4686.847656 2621.855469 4684.722656 2621.953125 C 4684.664062 2621.976562 4684.582031 2621.976562 4684.519531 2621.976562 C 4682.476562 2621.976562 4680.777344 2620.394531 4680.675781 2618.332031 C 4622.894531 2621.875 4558.699219 2622.925781 4491.75 2619.058594 C 4470.132812 2643.492188 4427.511719 2690.109375 4395.757812 2714.96875 C 4164.003906 2720.292969 4076.492188 2559.367188 4076.492188 2559.367188 L 4083.050781 2515.015625 C 4043.828125 2493.863281 4006.449219 2468.925781 3971.921875 2439.429688 L 3974.148438 2410.464844 C 3901.734375 2472.324219 3816.324219 2513.71875 3774.351562 2480.300781 C 3770.808594 2477.464844 3767.570312 2474.125 3764.675781 2470.199219 C 3728.792969 2431.414062 3604.792969 2284.316406 3606.429688 2104.625 C 3608.355469 1894.613281 3734.21875 1642.476562 3734.21875 1642.476562 C 3734.21875 1642.476562 3734.117188 1642.71875 3733.953125 1643.082031 C 3753 1600.390625 3774.046875 1559.320312 3796.613281 1522.257812 C 3854.476562 1427.160156 3956.964844 1323.195312 4056.273438 1245.140625 L 3971.921875 1196.601562 C 3996.957031 1063.648438 4106.769531 1015.492188 4106.769531 1015.492188 L 4217.132812 1110.976562 C 4225.386719 1104.296875 4283.230469 1060.65625 4337.308594 1100.875 C 4337.53125 1100.59375 4337.734375 1100.289062 4338.058594 1100.066406 C 4339.757812 1098.789062 4342.183594 1099.136719 4343.460938 1100.835938 C 4343.542969 1100.957031 4343.785156 1101.320312 4344.128906 1101.785156 C 4352.445312 1099.074219 4373.3125 1094.09375 4392.800781 1103.648438 C 4430.164062 1094.296875 4539.734375 1069.785156 4554.347656 1099.660156 L 4559.488281 1044.339844 L 4564.164062 993.753906 L 4564.730469 987.703125 C 4559.789062 985.699219 4554.933594 983.53125 4550.199219 981.183594 C 4501.179688 956.914062 4472.199219 916.042969 4457.242188 841.917969 C 4450.460938 843.820312 4443.277344 844.671875 4435.847656 844.164062 C 4400.714844 841.777344 4374.183594 811.351562 4376.550781 776.210938 C 4378.433594 748.882812 4397.316406 726.820312 4422.128906 719.492188 C 4402.292969 670.992188 4406.441406 630.304688 4418.503906 598.929688 C 4394.28125 588.972656 4368.394531 577.816406 4343.199219 566.078125 C 4284.324219 539.902344 4210.554688 505.835938 4198.875 494.5 C 4178.980469 475.230469 4190.394531 451.445312 4220.957031 422.902344 C 4251.535156 394.382812 4455.785156 224.023438 4503.910156 206.433594 C 4580.050781 155.707031 4647.242188 119.292969 4672.519531 124.777344 C 4739.246094 139.289062 5165.574219 337.988281 5167.03125 359.75 C 5167.738281 370.171875 5119.996094 428.996094 5063.730469 488.246094 C 5176.523438 589.941406 5181.945312 668.402344 5178.402344 699.269531 C 5188.160156 702.367188 5202.570312 710.078125 5208.921875 729.148438 C 5225.863281 780.097656 5215.21875 837.585938 5215.21875 837.585938 C 5179.089844 866.59375 5119.46875 832.707031 5119.46875 832.707031 C 5119.46875 832.707031 5129.8125 804.46875 5134.769531 763.640625 C 5141.023438 712.105469 5156.769531 702.449219 5156.769531 702.449219 L 5159.664062 701.171875 C 5168.871094 615.8125 5110.140625 543.628906 5056.042969 496.300781 C 5022.382812 531.28125 4986.398438 565.613281 4956.265625 589.457031 C 4976.058594 630.992188 4966.121094 683.824219 4954.664062 720.078125 C 4982.515625 729.109375 5001.820312 756.109375 4999.71875 786.636719 C 4997.246094 822.6875 4966.082031 849.894531 4930.074219 847.421875 C 4923.378906 846.976562 4916.980469 845.519531 4911.03125 843.234375 C 4897.714844 910.882812 4872.839844 944.605469 4830.421875 974.503906 C 4822.832031 979.867188 4814.777344 984.421875 4806.316406 988.328125 L 4822.042969 1106.867188 C 4822.304688 1106.765625 4935.316406 1056 5070.027344 1098.34375 C 5070.027344 1098.34375 5233.777344 1104.113281 5355.148438 1271.761719 C 5476.519531 1439.386719 5651.824219 1832.46875 5690.378906 2015.519531 C 5721.261719 2162.316406 5698.839844 2352.371094 5623.207031 2458.703125 " fill-opacity="1" fill-rule="nonzero"/></g><g clip-path="url(#id3)"><path fill="#dc4d4e" d="M 4418.039062 1128.730469 C 4418.222656 1128.628906 4418.363281 1128.484375 4418.566406 1128.40625 C 4420.589844 1127.71875 4422.777344 1128.769531 4423.464844 1130.773438 C 4423.503906 1130.855469 4423.585938 1131.097656 4423.664062 1131.320312 C 4434.292969 1129.945312 4464.246094 1130.792969 4476.710938 1180.328125 C 4478.777344 1179.839844 4480.859375 1181.074219 4481.386719 1183.140625 C 4481.40625 1183.222656 4481.445312 1183.402344 4481.507812 1183.6875 C 4490.492188 1183.828125 4512.714844 1190.832031 4521.257812 1253.925781 C 4521.257812 1253.925781 4521.257812 1284.855469 4513.324219 1333.257812 L 4523.582031 1341.472656 C 4534.796875 1257.1875 4544.613281 1189.71875 4550.398438 1149.253906 C 4551.089844 1144.558594 4551.714844 1140.1875 4552.261719 1136.238281 C 4554.507812 1120.429688 4555.824219 1110.652344 4555.945312 1107.980469 C 4556.085938 1104.824219 4555.519531 1102.070312 4554.347656 1099.660156 C 4539.734375 1069.785156 4430.164062 1094.296875 4392.800781 1103.648438 C 4402.011719 1108.164062 4410.894531 1115.9375 4418.039062 1128.730469 Z M 4453.558594 2183.164062 C 4453.558594 2004.121094 4471.042969 1792.492188 4491.566406 1604.480469 L 4439.59375 1554.261719 C 4435.585938 1561.8125 4431.457031 1569.382812 4427.066406 1576.972656 C 4341.902344 1723.527344 4233.445312 2035.277344 4164.085938 2100.3125 C 4163.113281 2101.203125 4162.121094 2102.054688 4161.132812 2102.945312 C 4160.339844 2110.800781 4159.574219 2118.632812 4158.804688 2126.40625 C 4158.804688 2126.488281 4158.785156 2126.589844 4158.785156 2126.667969 L 4162.222656 2120.050781 L 4124.984375 2547.34375 C 4221.644531 2689.441406 4395.757812 2714.96875 4395.757812 2714.96875 C 4427.511719 2690.109375 4470.132812 2643.492188 4491.75 2619.058594 C 4500.289062 2609.40625 4505.570312 2603.210938 4505.570312 2603.210938 C 4505.570312 2603.210938 4453.558594 2368.136719 4453.558594 2183.164062 Z M 5194.351562 2367.875 C 5173.628906 2297.714844 5156.183594 2223.992188 5141.570312 2148.792969 L 5075.792969 2084.96875 C 5049.441406 2105.011719 5018.621094 2120.394531 4983.34375 2125.351562 L 4843.253906 1961.007812 L 4820.566406 1981.816406 C 4819.574219 1982.097656 4818.683594 1982.242188 4817.75 1982.484375 C 4822.347656 2081.710938 4828.457031 2168.144531 4835.074219 2242.070312 C 4834.730469 2219.480469 4834.628906 2205.632812 4834.628906 2205.632812 C 4839.8125 2278.972656 4879.316406 2574.304688 4879.316406 2574.304688 C 4974.5 2665.070312 5079.074219 2677.09375 5091.84375 2678.25 C 5092.023438 2678.269531 5092.1875 2678.289062 5092.347656 2678.289062 C 5092.46875 2678.308594 5092.652344 2678.328125 5092.753906 2678.328125 C 5092.996094 2678.351562 5093.136719 2678.371094 5093.136719 2678.371094 C 5134.527344 2644.121094 5161.078125 2599.039062 5178.140625 2555.84375 C 5207.183594 2482.40625 5208.742188 2414.390625 5208.742188 2414.390625 C 5203.761719 2399.089844 5198.984375 2383.5625 5194.351562 2367.875 Z M 4820.222656 1145.832031 C 4819.308594 1166.054688 4818.460938 1186.054688 4817.671875 1205.851562 C 4812.46875 1337.042969 4809.980469 1458.535156 4809.515625 1570.394531 L 4820.566406 1579.238281 C 4876.769531 1568.976562 4994.859375 1594.460938 5059.421875 1647.636719 C 5040.539062 1495.171875 5008.5 1168.667969 5070.027344 1098.34375 C 4935.316406 1056 4822.304688 1106.765625 4822.042969 1106.867188 C 4822.042969 1106.867188 4822.023438 1106.886719 4822.023438 1106.886719 C 4821.394531 1119.964844 4820.808594 1132.917969 4820.222656 1145.832031 Z M 5030.519531 1853.664062 L 5095.871094 1885.300781 C 5067.03125 1868.925781 5043.089844 1856.820312 5030.519531 1853.664062 Z M 4912.042969 1897.992188 L 4905.0625 1904.390625 C 4931.695312 1883.296875 4963.308594 1862.671875 4992.472656 1854.9375 C 4951.527344 1865.199219 4912.042969 1897.992188 4912.042969 1897.992188 Z M 4607.898438 804.226562 C 4608.140625 778.15625 4592.882812 755.605469 4570.761719 745.160156 C 4567.21875 751.292969 4562.179688 755.140625 4556.613281 755.078125 C 4549.449219 754.996094 4543.277344 748.558594 4540.117188 739.085938 C 4506.136719 740.707031 4478.917969 768.519531 4478.59375 802.949219 C 4478.25 838.679688 4506.886719 867.929688 4542.609375 868.230469 C 4578.308594 868.597656 4607.535156 839.933594 4607.898438 804.226562 Z M 4793.484375 749.671875 C 4796.398438 752.914062 4799.941406 754.816406 4803.765625 754.835938 C 4810.730469 754.9375 4816.863281 748.78125 4820.121094 739.652344 C 4823.257812 739.207031 4826.476562 738.90625 4829.753906 738.945312 C 4865.453125 739.308594 4894.132812 768.5 4893.808594 804.1875 C 4893.425781 839.933594 4864.21875 868.578125 4828.519531 868.230469 C 4792.816406 867.910156 4764.160156 838.679688 4764.503906 802.972656 C 4764.707031 780.683594 4776.203125 761.128906 4793.484375 749.671875 " fill-opacity="1" fill-rule="nonzero"/></g><g clip-path="url(#id4)"><path fill="#cdeaec" d="M 5190.164062 1930.945312 L 5095.871094 1885.300781 L 5030.519531 1853.664062 C 5018.863281 1850.484375 5005.929688 1851.355469 4992.472656 1854.9375 C 4963.308594 1862.671875 4931.695312 1883.296875 4905.0625 1904.390625 C 4869.746094 1932.363281 4843.253906 1961.007812 4843.253906 1961.007812 L 4983.34375 2125.351562 C 5018.621094 2120.394531 5049.441406 2105.011719 5075.792969 2084.96875 C 5151.566406 2027.320312 5190.164062 1930.945312 5190.164062 1930.945312 Z M 4172.546875 1312.042969 L 4175.460938 1313.722656 L 4181.957031 1317.46875 C 4181.957031 1317.46875 4183.453125 1317 4186.003906 1315.949219 C 4191.449219 1313.660156 4201.871094 1308.460938 4213.933594 1298.175781 C 4237.53125 1278.097656 4267.363281 1238.703125 4278.3125 1163.910156 L 4268.980469 1155.832031 L 4263.761719 1151.320312 L 4217.132812 1110.976562 L 4106.769531 1015.492188 C 4106.769531 1015.492188 3996.957031 1063.648438 3971.921875 1196.601562 L 4056.273438 1245.140625 L 4120.429688 1282.0625 Z M 4816.375 1580.046875 C 4817.730469 1579.746094 4819.148438 1579.480469 4820.566406 1579.238281 L 4809.515625 1570.394531 L 4678.207031 1465.253906 L 4671.125 1459.585938 L 4523.582031 1341.472656 L 4513.324219 1333.257812 C 4503.992188 1390.097656 4483.671875 1471.023438 4439.59375 1554.261719 L 4491.566406 1604.480469 L 4629.007812 1737.289062 L 4646.632812 1714.941406 C 4704.839844 1639.785156 4765.636719 1591.628906 4816.375 1580.046875 Z M 4681.203125 1400.054688 C 4682.09375 1398.476562 4683.933594 1397.644531 4685.695312 1398.234375 C 4687.71875 1398.882812 4688.851562 1401.066406 4688.183594 1403.089844 C 4688.183594 1403.113281 4688.164062 1403.191406 4688.125 1403.335938 C 4692.355469 1404.671875 4696.402344 1404.589844 4700.144531 1402.789062 C 4733.011719 1386.957031 4784.339844 1281.414062 4817.671875 1205.851562 C 4818.460938 1186.054688 4819.308594 1166.054688 4820.222656 1145.832031 C 4729.371094 1171.804688 4600.46875 1147.191406 4552.261719 1136.238281 C 4551.714844 1140.1875 4551.089844 1144.558594 4550.398438 1149.253906 C 4572.339844 1208.242188 4636.253906 1371.738281 4681.203125 1400.054688 Z M 5056.042969 496.300781 C 5058.613281 493.609375 5061.183594 490.9375 5063.730469 488.246094 C 5176.523438 589.941406 5181.945312 668.402344 5178.402344 699.269531 C 5188.160156 702.367188 5202.570312 710.078125 5208.921875 729.148438 C 5225.863281 780.097656 5215.21875 837.585938 5215.21875 837.585938 C 5179.089844 866.59375 5119.46875 832.707031 5119.46875 832.707031 C 5119.46875 832.707031 5129.8125 804.46875 5134.769531 763.640625 C 5141.023438 712.105469 5156.769531 702.449219 5156.769531 702.449219 L 5159.664062 701.171875 C 5168.871094 615.8125 5110.140625 543.628906 5056.042969 496.300781 " fill-opacity="1" fill-rule="nonzero"/></g><g clip-path="url(#id5)"><path fill="#304850" d="M 4649.285156 852.910156 C 4647.808594 854.445312 4647.828125 856.875 4649.367188 858.355469 C 4650.015625 858.980469 4664.789062 873.128906 4685.1875 873.128906 C 4686.039062 873.128906 4686.910156 873.089844 4687.78125 873.050781 C 4702.046875 872.199219 4715.203125 864.46875 4726.902344 850.015625 C 4728.238281 848.355469 4727.972656 845.925781 4726.3125 844.589844 C 4724.695312 843.234375 4722.226562 843.476562 4720.890625 845.136719 C 4710.628906 857.808594 4699.355469 864.589844 4687.394531 865.316406 C 4669.222656 866.449219 4654.890625 852.949219 4654.75 852.828125 C 4653.230469 851.351562 4650.761719 851.371094 4649.285156 852.910156 Z M 5623.207031 2458.703125 C 5698.839844 2352.371094 5721.261719 2162.316406 5690.378906 2015.519531 C 5651.824219 1832.46875 5476.519531 1439.386719 5355.148438 1271.761719 C 5233.777344 1104.113281 5070.027344 1098.34375 5070.027344 1098.34375 C 5008.5 1168.667969 5040.539062 1495.171875 5059.421875 1647.636719 C 5062.4375 1650.105469 5065.371094 1652.617188 5068.125 1655.207031 C 5075.855469 1662.476562 5088.058594 1674.296875 5103.480469 1689.398438 L 5089.3125 1554.160156 C 5089.070312 1552.035156 5090.628906 1550.152344 5092.753906 1549.929688 C 5094.796875 1549.6875 5096.761719 1551.222656 5096.984375 1553.371094 L 5111.636719 1693.242188 C 5111.777344 1694.4375 5111.3125 1695.53125 5110.523438 1696.320312 C 5225.945312 1809.714844 5493.863281 2079.121094 5493.863281 2079.121094 L 5527.15625 2108.410156 C 5564.71875 2109.421875 5622.417969 2127.539062 5636.421875 2225.550781 C 5642.699219 2269.519531 5638.285156 2313.300781 5629.015625 2353.160156 C 5626.992188 2360.203125 5585.664062 2499.023438 5438.671875 2585.378906 C 5438.691406 2585.378906 5493.234375 2582.804688 5573.5625 2509.894531 C 5591.917969 2496.65625 5608.351562 2479.511719 5622.824219 2459.269531 C 5622.945312 2459.125 5623.066406 2458.984375 5623.207031 2458.824219 Z M 4172.546875 1312.042969 C 4172.625 1312.101562 4173.679688 1312.871094 4175.460938 1313.722656 Z M 4213.933594 1298.175781 C 4201.871094 1308.460938 4191.449219 1313.660156 4186.003906 1315.949219 C 4193.472656 1315.765625 4203.390625 1311.902344 4213.933594 1298.175781 Z M 4263.761719 1151.320312 L 4268.980469 1155.832031 C 4267.179688 1154.03125 4265.441406 1152.59375 4263.761719 1151.320312 Z M 3748.445312 2402.8125 C 3748.445312 2402.8125 3779.046875 2221.058594 3899.363281 2092.316406 C 3872.042969 2028.027344 3882.445312 1914.570312 3931.464844 1841.636719 C 3931.464844 1841.636719 4101.953125 1538.148438 4112.074219 1503.472656 C 4122.191406 1468.777344 4094.566406 1311.414062 4106.121094 1273.824219 L 4120.429688 1282.0625 L 4056.273438 1245.140625 C 3956.964844 1323.195312 3854.476562 1427.160156 3796.613281 1522.257812 C 3774.046875 1559.320312 3753 1600.390625 3733.953125 1643.082031 C 3726.953125 1658.851562 3574.675781 2010.679688 3748.445312 2402.8125 Z M 4436.214844 811.089844 C 4436.171875 811.109375 4430.789062 811.859375 4428.664062 808.984375 C 4427.53125 807.445312 4425.691406 802.261719 4432.914062 787.667969 C 4438.320312 776.796875 4439.046875 767.183594 4435.101562 759.066406 C 4428.523438 745.484375 4411.28125 741.71875 4410.53125 741.578125 C 4408.464844 741.152344 4406.402344 742.46875 4405.957031 744.550781 C 4405.53125 746.636719 4406.867188 748.703125 4408.933594 749.128906 C 4409.09375 749.167969 4423.261719 752.304688 4428.160156 762.464844 C 4430.992188 768.316406 4430.265625 775.644531 4425.992188 784.226562 C 4419.171875 797.992188 4418.019531 807.605469 4422.492188 813.617188 C 4425.851562 818.152344 4431.335938 818.921875 4434.65625 818.921875 C 4436.253906 818.921875 4437.367188 818.738281 4437.488281 818.71875 C 4439.59375 818.375 4440.988281 816.371094 4440.644531 814.285156 C 4440.300781 812.179688 4438.296875 810.785156 4436.214844 811.089844 Z M 4556.613281 755.078125 C 4562.179688 755.140625 4567.21875 751.292969 4570.761719 745.160156 C 4573.875 739.734375 4575.839844 732.527344 4575.921875 724.574219 C 4576.0625 711.515625 4571.125 700.382812 4564.082031 695.851562 C 4568.210938 694.574219 4571.328125 694.25 4571.40625 694.230469 C 4573.53125 694.027344 4575.089844 692.125 4574.890625 690.019531 C 4574.667969 687.894531 4572.683594 686.335938 4570.679688 686.539062 C 4569.808594 686.621094 4549.792969 688.683594 4539.996094 703.5625 C 4538.945312 705.179688 4539.308594 707.265625 4540.707031 708.519531 C 4538.964844 713.097656 4537.914062 718.460938 4537.871094 724.207031 C 4537.8125 729.59375 4538.640625 734.675781 4540.117188 739.085938 C 4543.277344 748.558594 4549.449219 754.996094 4556.613281 755.078125 Z M 4946.003906 755.261719 C 4940.074219 762.0625 4938.273438 771.535156 4940.621094 783.417969 C 4943.796875 799.429688 4940.640625 803.941406 4939.121094 805.136719 C 4936.328125 807.34375 4931.351562 805.199219 4931.332031 805.199219 C 4929.386719 804.285156 4927.082031 805.136719 4926.191406 807.082031 C 4925.300781 809.023438 4926.128906 811.3125 4928.074219 812.203125 C 4928.296875 812.304688 4931.714844 813.863281 4935.824219 813.863281 C 4938.433594 813.863281 4941.328125 813.214844 4943.898438 811.210938 C 4949.789062 806.59375 4951.183594 797 4948.210938 781.917969 C 4946.347656 772.527344 4947.5625 765.261719 4951.8125 760.363281 C 4959.199219 751.839844 4973.730469 752.507812 4973.851562 752.527344 C 4976.21875 752.710938 4977.796875 751.007812 4977.921875 748.882812 C 4978.042969 746.757812 4976.421875 744.9375 4974.296875 744.816406 C 4973.546875 744.753906 4955.941406 743.863281 4946.003906 755.261719 Z M 4820.121094 739.652344 C 4821.636719 735.363281 4822.546875 730.421875 4822.589844 725.140625 C 4822.730469 712.46875 4817.933594 701.578125 4811.074219 697.164062 C 4812.976562 696.71875 4814.269531 696.597656 4814.3125 696.578125 C 4816.457031 696.394531 4818.015625 694.535156 4817.851562 692.410156 C 4817.671875 690.28125 4815.828125 688.722656 4813.683594 688.886719 C 4812.875 688.945312 4793.605469 690.667969 4787.554688 706.699219 C 4787.089844 707.933594 4787.351562 709.210938 4788.042969 710.203125 C 4786.484375 714.511719 4785.574219 719.492188 4785.511719 724.816406 C 4785.429688 735.140625 4788.589844 744.269531 4793.484375 749.671875 C 4796.398438 752.914062 4799.941406 754.816406 4803.765625 754.835938 C 4810.730469 754.9375 4816.863281 748.78125 4820.121094 739.652344 Z M 4645.5 686.253906 C 4643.800781 685 4641.351562 685.363281 4640.097656 687.085938 C 4638.84375 688.804688 4639.207031 691.214844 4640.925781 692.488281 C 4641.109375 692.632812 4659.628906 706.496094 4661.066406 724.046875 C 4661.753906 732.386719 4658.394531 740.441406 4651.085938 747.972656 C 4634.25 765.28125 4635.039062 778.539062 4638.679688 786.617188 C 4643.640625 797.605469 4656.246094 803.882812 4666.042969 803.882812 C 4666.40625 803.882812 4666.773438 803.863281 4667.117188 803.863281 C 4669.261719 803.761719 4670.878906 801.9375 4670.777344 799.8125 C 4670.679688 797.667969 4669.058594 796.027344 4666.730469 796.128906 C 4660.679688 796.472656 4649.671875 792.183594 4645.742188 783.417969 C 4641.9375 774.996094 4645.703125 764.59375 4656.632812 753.359375 C 4665.578125 744.148438 4669.667969 734.046875 4668.753906 723.359375 C 4666.996094 702.285156 4646.371094 686.902344 4645.5 686.253906 Z M 4700.144531 1402.789062 C 4696.402344 1404.589844 4692.355469 1404.671875 4688.125 1403.335938 C 4687.496094 1405.460938 4683.105469 1421.835938 4678.207031 1465.253906 L 4809.515625 1570.394531 C 4809.980469 1458.535156 4812.46875 1337.042969 4817.671875 1205.851562 C 4784.339844 1281.414062 4733.011719 1386.957031 4700.144531 1402.789062 Z M 4671.125 1459.585938 C 4676.242188 1416.046875 4680.695312 1401.210938 4680.835938 1400.703125 C 4680.917969 1400.460938 4681.082031 1400.277344 4681.203125 1400.054688 C 4636.253906 1371.738281 4572.339844 1208.242188 4550.398438 1149.253906 C 4544.613281 1189.71875 4534.796875 1257.1875 4523.582031 1341.472656 Z M 4656.023438 1919.488281 C 4633.4375 1905.320312 4628.964844 1874.128906 4628.097656 1863.277344 C 4628.035156 1863.277344 4627.953125 1863.316406 4627.894531 1863.316406 C 4626.984375 1863.316406 4626.070312 1863.015625 4625.34375 1862.347656 C 4624.230469 1861.375 4623.867188 1859.917969 4624.167969 1858.582031 C 4571.773438 1845.363281 4585.917969 1792.023438 4585.917969 1792.023438 L 4629.007812 1737.289062 L 4491.566406 1604.480469 C 4471.042969 1792.492188 4453.558594 2004.121094 4453.558594 2183.164062 C 4453.558594 2368.136719 4505.570312 2603.210938 4505.570312 2603.210938 C 4505.570312 2603.210938 4500.289062 2609.40625 4491.75 2619.058594 C 4558.699219 2622.925781 4622.894531 2621.875 4680.675781 2618.332031 C 4680.675781 2618.332031 4680.65625 2618.332031 4680.65625 2618.3125 C 4664.425781 2319.839844 4657.5625 2092.257812 4656.023438 1919.488281 Z M 4851.449219 2587.300781 C 4840.175781 2511.816406 4836.25 2322.046875 4835.074219 2242.070312 C 4828.457031 2168.144531 4822.347656 2081.710938 4817.75 1982.484375 C 4780.167969 1992.320312 4763.734375 1972.320312 4758.757812 1964.003906 C 4758.191406 1964.304688 4757.582031 1964.488281 4756.957031 1964.488281 C 4756.125 1964.488281 4755.296875 1964.207031 4754.585938 1963.660156 C 4753.917969 1963.132812 4753.535156 1962.445312 4753.332031 1961.675781 C 4717.085938 1971.390625 4698.992188 1940.21875 4693.953125 1929.449219 C 4693.464844 1929.652344 4692.960938 1929.792969 4692.433594 1929.792969 C 4691.585938 1929.792969 4690.734375 1929.53125 4690.027344 1928.964844 C 4689.175781 1928.273438 4688.691406 1927.324219 4688.589844 1926.3125 C 4678.835938 1927.140625 4670.636719 1925.949219 4663.777344 1923.335938 C 4665.394531 2095.394531 4672.257812 2321.640625 4688.367188 2617.867188 C 4758.210938 2613.3125 4818.117188 2605.234375 4861.46875 2598.109375 C 4854.769531 2591.53125 4851.449219 2587.300781 4851.449219 2587.300781 Z M 4158.785156 2126.667969 C 4158.785156 2126.589844 4158.804688 2126.488281 4158.804688 2126.40625 C 4158.722656 2126.628906 4158.660156 2126.851562 4158.5625 2127.09375 Z M 4074.570312 2295.386719 C 4052.167969 2333.707031 4015.25 2375.363281 3974.148438 2410.464844 L 3971.921875 2439.429688 C 4006.449219 2468.925781 4043.828125 2493.863281 4083.050781 2515.015625 L 4130.855469 2191.625 C 4115.554688 2223.101562 4096.75 2257.453125 4074.570312 2295.386719 Z M 4920.949219 350.457031 C 4920.421875 370.09375 4916.757812 502.859375 4908.988281 525.003906 C 4908.277344 527.03125 4909.351562 529.234375 4911.355469 529.945312 C 4911.78125 530.085938 4912.207031 530.148438 4912.628906 530.148438 C 4914.230469 530.148438 4915.726562 529.15625 4916.273438 527.554688 C 4925.035156 502.617188 4928.578125 354.527344 4928.71875 348.230469 C 4928.761719 346.753906 4927.949219 345.375 4926.65625 344.6875 C 4643.902344 198.175781 4445.929688 360.738281 4443.945312 362.398438 C 4442.324219 363.777344 4442.125 366.226562 4443.480469 367.84375 C 4444.875 369.484375 4447.304688 369.6875 4448.945312 368.3125 C 4450.867188 366.691406 4643.921875 208.214844 4920.949219 350.457031 Z M 4687.214844 575.289062 L 4896.175781 532.496094 C 4898.261719 532.089844 4899.617188 530.046875 4899.191406 527.941406 C 4898.746094 525.855469 4896.742188 524.519531 4894.617188 524.925781 L 4686.078125 567.65625 C 4668.777344 569.273438 4543.277344 546.765625 4479.320312 534.621094 C 4477.195312 534.214844 4475.195312 535.613281 4474.789062 537.699219 C 4474.402344 539.800781 4475.78125 541.828125 4477.863281 542.230469 C 4485.230469 543.628906 4652.988281 575.386719 4684.5625 575.386719 C 4685.59375 575.386719 4686.484375 575.347656 4687.214844 575.289062 Z M 4422.128906 719.492188 C 4402.292969 670.992188 4406.441406 630.304688 4418.503906 598.929688 C 4394.28125 588.972656 4368.394531 577.816406 4343.199219 566.078125 C 4384.503906 584.4375 4418.484375 598.929688 4418.484375 598.929688 C 4424.554688 579.273438 4462.242188 534.601562 4462.242188 534.601562 L 4440.160156 369.890625 C 4397.152344 281.796875 4503.933594 206.433594 4503.933594 206.433594 C 4503.933594 206.433594 4503.910156 206.433594 4503.910156 206.433594 C 4580.050781 155.707031 4647.242188 119.292969 4672.519531 124.777344 C 4739.246094 139.289062 5165.574219 337.988281 5167.03125 359.75 C 5167.738281 370.171875 5119.996094 428.996094 5063.730469 488.246094 C 5061.183594 490.9375 5058.613281 493.609375 5056.042969 496.300781 C 5022.382812 531.28125 4986.398438 565.613281 4956.265625 589.457031 C 4976.058594 630.992188 4966.121094 683.824219 4954.664062 720.078125 C 4949.667969 718.441406 4944.425781 717.347656 4938.941406 716.960938 C 4934.730469 716.679688 4930.601562 716.820312 4926.574219 717.328125 L 4916.414062 755.078125 L 4895.265625 765.402344 L 4889.863281 734.511719 C 4867.640625 723.519531 4869.136719 678.824219 4869.136719 678.824219 C 4773.976562 699.128906 4686.445312 609.191406 4686.445312 609.191406 C 4686.445312 639.65625 4730.785156 657.066406 4730.785156 657.066406 C 4673.046875 665.019531 4612.652344 606.703125 4580.453125 569.335938 C 4572.964844 588.546875 4554.40625 628.746094 4522.410156 653.441406 C 4522.410156 653.441406 4525.609375 692.730469 4489.359375 700.402344 L 4459.628906 748.640625 L 4440.160156 734.511719 C 4440.160156 734.511719 4439.128906 727.792969 4438.15625 716.859375 C 4432.613281 717.023438 4427.269531 717.972656 4422.128906 719.492188 Z M 5141.570312 2148.792969 L 5256.523438 2260.390625 C 5229.890625 2294.375 5209.085938 2331.195312 5194.351562 2367.875 C 5173.628906 2297.714844 5156.183594 2223.992188 5141.570312 2148.792969 " fill-opacity="1" fill-rule="nonzero"/></g><g clip-path="url(#id6)"><path fill="#100f0d" d="M 4896.175781 532.496094 C 4898.261719 532.089844 4899.617188 530.046875 4899.191406 527.941406 C 4898.746094 525.855469 4896.742188 524.519531 4894.617188 524.925781 L 4686.078125 567.65625 C 4668.777344 569.273438 4543.277344 546.765625 4479.320312 534.621094 C 4477.195312 534.214844 4475.195312 535.613281 4474.789062 537.699219 C 4474.402344 539.800781 4475.78125 541.828125 4477.863281 542.230469 C 4485.230469 543.628906 4652.988281 575.386719 4684.5625 575.386719 C 4685.59375 575.386719 4686.484375 575.347656 4687.214844 575.289062 Z M 4920.949219 350.457031 C 4920.421875 370.09375 4916.757812 502.859375 4908.988281 525.003906 C 4908.277344 527.03125 4909.351562 529.234375 4911.355469 529.945312 C 4911.78125 530.085938 4912.207031 530.148438 4912.628906 530.148438 C 4914.230469 530.148438 4915.726562 529.15625 4916.273438 527.554688 C 4925.035156 502.617188 4928.578125 354.527344 4928.71875 348.230469 C 4928.761719 346.753906 4927.949219 345.375 4926.65625 344.6875 C 4643.902344 198.175781 4445.929688 360.738281 4443.945312 362.398438 C 4442.324219 363.777344 4442.125 366.226562 4443.480469 367.84375 C 4444.875 369.484375 4447.304688 369.6875 4448.945312 368.3125 C 4450.867188 366.691406 4643.921875 208.214844 4920.949219 350.457031 Z M 4462.242188 534.601562 L 4440.160156 369.890625 C 4397.152344 281.796875 4503.933594 206.433594 4503.933594 206.433594 C 4503.933594 206.433594 4503.910156 206.433594 4503.910156 206.433594 C 4455.785156 224.023438 4251.535156 394.382812 4220.957031 422.902344 C 4190.394531 451.445312 4178.980469 475.230469 4198.875 494.5 C 4210.554688 505.835938 4284.324219 539.902344 4343.199219 566.078125 C 4384.503906 584.4375 4418.484375 598.929688 4418.484375 598.929688 C 4424.554688 579.273438 4462.242188 534.601562 4462.242188 534.601562 Z M 4797.453125 1003.449219 C 4797.453125 1003.449219 4656.914062 1052.496094 4564.164062 993.753906 L 4559.488281 1044.339844 L 4558.375 1056.261719 C 4558.375 1056.261719 4690.25 1091.078125 4797.453125 1003.449219 Z M 5107.792969 1697.515625 C 5107.933594 1697.515625 5108.074219 1697.515625 5108.195312 1697.492188 C 5109.125 1697.394531 5109.917969 1696.949219 5110.523438 1696.320312 C 5111.3125 1695.53125 5111.777344 1694.4375 5111.636719 1693.242188 L 5096.984375 1553.371094 C 5096.761719 1551.222656 5094.796875 1549.6875 5092.753906 1549.929688 C 5090.628906 1550.152344 5089.070312 1552.035156 5089.3125 1554.160156 L 5103.480469 1689.398438 L 5103.964844 1694.054688 C 5104.167969 1696.035156 5105.847656 1697.515625 5107.792969 1697.515625 Z M 5092.347656 2678.289062 C 5092.1875 2678.289062 5092.066406 2678.269531 5091.84375 2678.25 C 5079.074219 2677.09375 4974.5 2665.070312 4879.316406 2574.304688 C 4879.316406 2574.304688 4839.8125 2278.972656 4834.628906 2205.632812 C 4834.628906 2205.632812 4834.730469 2219.480469 4835.074219 2242.070312 C 4836.25 2322.046875 4840.175781 2511.816406 4851.449219 2587.300781 C 4851.449219 2587.300781 4854.769531 2591.53125 4861.46875 2598.109375 C 4886.949219 2623.167969 4961.851562 2682.964844 5093.136719 2678.371094 C 5093.136719 2678.371094 5092.996094 2678.351562 5092.753906 2678.328125 C 5092.652344 2678.328125 5092.46875 2678.308594 5092.347656 2678.289062 Z M 4124.984375 2547.34375 L 4162.222656 2120.050781 L 4158.785156 2126.667969 L 4158.5625 2127.09375 C 4158.660156 2126.851562 4158.722656 2126.628906 4158.804688 2126.40625 C 4159.574219 2118.632812 4160.339844 2110.800781 4161.132812 2102.945312 C 4091.347656 2165.515625 3972.648438 2172.882812 3921.34375 2125.351562 C 3912.359375 2117.054688 3905.070312 2105.71875 3899.363281 2092.316406 C 3779.046875 2221.058594 3748.445312 2402.8125 3748.445312 2402.8125 C 3574.675781 2010.679688 3726.953125 1658.851562 3733.953125 1643.082031 C 3734.117188 1642.71875 3734.21875 1642.476562 3734.21875 1642.476562 C 3734.21875 1642.476562 3608.355469 1894.613281 3606.429688 2104.625 C 3604.792969 2284.316406 3728.792969 2431.414062 3764.675781 2470.199219 C 3767.570312 2474.125 3770.808594 2477.464844 3774.351562 2480.300781 C 3816.324219 2513.71875 3901.734375 2472.324219 3974.148438 2410.464844 C 4015.25 2375.363281 4052.167969 2333.707031 4074.570312 2295.386719 C 4096.75 2257.453125 4115.554688 2223.101562 4130.855469 2191.625 L 4083.050781 2515.015625 L 4076.492188 2559.367188 C 4076.492188 2559.367188 4164.003906 2720.292969 4395.757812 2714.96875 C 4395.757812 2714.96875 4221.644531 2689.441406 4124.984375 2547.34375 Z M 4851.105469 1846.902344 C 4852.398438 1845.222656 4852.117188 1842.792969 4850.4375 1841.457031 C 4848.757812 1840.179688 4846.328125 1840.445312 4845.011719 1842.125 L 4753.917969 1958.234375 C 4753.128906 1959.246094 4752.988281 1960.519531 4753.332031 1961.675781 C 4753.535156 1962.445312 4753.917969 1963.132812 4754.585938 1963.660156 C 4755.296875 1964.207031 4756.125 1964.488281 4756.957031 1964.488281 C 4757.582031 1964.488281 4758.191406 1964.304688 4758.757812 1964.003906 C 4759.222656 1963.761719 4759.667969 1963.4375 4760.011719 1962.992188 Z M 4799.070312 1797.550781 C 4800.40625 1795.871094 4800.125 1793.421875 4798.445312 1792.105469 C 4796.785156 1790.789062 4794.355469 1791.054688 4793.019531 1792.734375 L 4689.398438 1923.539062 C 4688.75 1924.347656 4688.507812 1925.339844 4688.589844 1926.3125 C 4688.691406 1927.324219 4689.175781 1928.273438 4690.027344 1928.964844 C 4690.734375 1929.53125 4691.585938 1929.792969 4692.433594 1929.792969 C 4692.960938 1929.792969 4693.464844 1929.652344 4693.953125 1929.449219 C 4694.519531 1929.207031 4695.046875 1928.84375 4695.449219 1928.335938 Z M 4744.042969 1733.363281 C 4745.460938 1731.765625 4745.296875 1729.335938 4743.699219 1727.917969 C 4742.101562 1726.5 4739.652344 1726.664062 4738.234375 1728.261719 L 4624.980469 1856.902344 C 4624.554688 1857.386719 4624.3125 1857.972656 4624.167969 1858.582031 C 4623.867188 1859.917969 4624.230469 1861.375 4625.34375 1862.347656 C 4626.070312 1863.015625 4626.984375 1863.316406 4627.894531 1863.316406 C 4627.953125 1863.316406 4628.035156 1863.277344 4628.097656 1863.277344 C 4629.109375 1863.21875 4630.078125 1862.8125 4630.789062 1862.003906 Z M 4476.710938 1180.328125 C 4476.710938 1180.328125 4476.691406 1180.328125 4476.691406 1180.328125 C 4474.625 1180.851562 4473.371094 1182.957031 4473.878906 1185.023438 C 4473.9375 1185.304688 4480.699219 1212.976562 4473.859375 1243.441406 C 4473.390625 1245.527344 4474.707031 1247.589844 4476.773438 1248.058594 C 4477.074219 1248.117188 4477.359375 1248.15625 4477.621094 1248.15625 C 4479.402344 1248.15625 4481 1246.921875 4481.40625 1245.140625 C 4488.207031 1214.820312 4482.5 1187.917969 4481.507812 1183.6875 C 4481.445312 1183.402344 4481.40625 1183.222656 4481.386719 1183.140625 C 4480.859375 1181.074219 4478.777344 1179.839844 4476.710938 1180.328125 Z M 4418.566406 1128.40625 C 4418.363281 1128.484375 4418.222656 1128.628906 4418.039062 1128.730469 C 4416.398438 1129.621094 4415.550781 1131.523438 4416.199219 1133.34375 C 4416.320312 1133.707031 4429.191406 1171.296875 4417.046875 1203.828125 C 4416.300781 1205.832031 4417.3125 1208.058594 4419.316406 1208.785156 C 4419.761719 1208.96875 4420.207031 1209.050781 4420.671875 1209.050781 C 4422.230469 1209.050781 4423.707031 1208.078125 4424.273438 1206.519531 C 4436.800781 1172.976562 4425.285156 1136.136719 4423.664062 1131.320312 C 4423.585938 1131.097656 4423.503906 1130.855469 4423.464844 1130.773438 C 4422.777344 1128.769531 4420.589844 1127.71875 4418.566406 1128.40625 Z M 4337.265625 1105.46875 C 4337.511719 1105.816406 4363.011719 1140.8125 4350.644531 1188.890625 C 4350.097656 1190.953125 4351.351562 1193.058594 4353.4375 1193.605469 C 4353.742188 1193.664062 4354.066406 1193.726562 4354.390625 1193.726562 C 4356.109375 1193.726562 4357.6875 1192.550781 4358.132812 1190.8125 C 4370.480469 1142.816406 4348.339844 1107.878906 4344.128906 1101.785156 C 4343.785156 1101.320312 4343.542969 1100.957031 4343.460938 1100.835938 C 4342.183594 1099.136719 4339.757812 1098.789062 4338.058594 1100.066406 C 4337.734375 1100.289062 4337.53125 1100.59375 4337.308594 1100.875 C 4336.316406 1102.210938 4336.214844 1104.074219 4337.265625 1105.46875 Z M 4656.023438 1919.488281 C 4657.5625 2092.257812 4664.425781 2319.839844 4680.65625 2618.3125 C 4680.65625 2618.332031 4680.675781 2618.332031 4680.675781 2618.332031 C 4680.777344 2620.394531 4682.476562 2621.976562 4684.519531 2621.976562 C 4684.582031 2621.976562 4684.664062 2621.976562 4684.722656 2621.953125 C 4686.847656 2621.855469 4688.507812 2620.03125 4688.367188 2617.886719 C 4688.367188 2617.886719 4688.367188 2617.886719 4688.367188 2617.867188 C 4672.257812 2321.640625 4665.394531 2095.394531 4663.777344 1923.335938 C 4660.984375 1922.261719 4658.394531 1920.988281 4656.023438 1919.488281 Z M 4688.183594 1403.089844 C 4688.851562 1401.066406 4687.71875 1398.882812 4685.695312 1398.234375 C 4683.933594 1397.644531 4682.09375 1398.476562 4681.203125 1400.054688 C 4681.082031 1400.277344 4680.917969 1400.460938 4680.835938 1400.703125 C 4680.695312 1401.210938 4676.242188 1416.046875 4671.125 1459.585938 L 4678.207031 1465.253906 C 4683.105469 1421.835938 4687.496094 1405.460938 4688.125 1403.335938 C 4688.164062 1403.191406 4688.183594 1403.113281 4688.183594 1403.089844 Z M 5438.671875 2585.378906 C 5348.449219 2624.789062 5236.871094 2651.367188 5190.164062 2580.09375 C 5185.367188 2572.785156 5181.378906 2564.648438 5178.140625 2555.84375 C 5207.183594 2482.40625 5208.742188 2414.390625 5208.742188 2414.390625 C 5203.761719 2399.089844 5198.984375 2383.5625 5194.351562 2367.875 C 5209.085938 2331.195312 5229.890625 2294.375 5256.523438 2260.390625 L 5324.890625 2326.722656 C 5546.988281 2349.332031 5546.421875 2125.351562 5546.421875 2125.351562 L 5527.15625 2108.410156 C 5564.71875 2109.421875 5622.417969 2127.539062 5636.421875 2225.550781 C 5642.699219 2269.519531 5638.285156 2313.300781 5629.015625 2353.160156 C 5626.992188 2360.203125 5585.664062 2499.023438 5438.671875 2585.378906 " fill-opacity="1" fill-rule="nonzero"/></g><g clip-path="url(#id7)"><path fill="#e99189" d="M 4274.769531 2556.554688 C 4245.695312 2558.492188 4194.289062 2544.453125 4135.324219 2516.171875 C 4134.992188 2516.878906 4134.382812 2517.402344 4133.675781 2517.648438 C 4154.28125 2576.6875 4188.179688 2655.769531 4232.414062 2695.558594 C 4232.414062 2695.558594 4043.011719 2838.851562 3750.25 2848.5625 C 3750.554688 2850.140625 3749.527344 2851.644531 3747.960938 2851.949219 C 3747.773438 2851.980469 3747.585938 2852.007812 3747.410156 2852.007812 C 3746.050781 2852.007812 3744.835938 2851.039062 3744.558594 2849.648438 C 3744.515625 2849.359375 3744.457031 2849.070312 3744.398438 2848.765625 C 3734.609375 2849.027344 3724.707031 2849.15625 3714.699219 2849.097656 C 3714.699219 2849.097656 3462.265625 2873.3125 3259.570312 2705.039062 C 3259.570312 2705.039062 3323.195312 2628.167969 3363.421875 2560.808594 C 3367.621094 2553.6875 3371.707031 2546.492188 3375.628906 2539.257812 C 3375.847656 2538.851562 3376.078125 2538.417969 3376.296875 2538.011719 C 3385.460938 2520.960938 3393.65625 2503.722656 3400.144531 2486.90625 C 3392.773438 2490.914062 3385.273438 2494.792969 3377.542969 2498.484375 C 3377.136719 2498.671875 3376.714844 2498.757812 3376.296875 2498.757812 C 3375.28125 2498.757812 3374.3125 2498.207031 3373.789062 2497.28125 C 3332.277344 2520.601562 3292.699219 2537.59375 3259.570312 2547.78125 C 3259.570312 2547.78125 3230.941406 2561.734375 3197.175781 2558.984375 C 3195.972656 2558.96875 3194.8125 2558.925781 3193.683594 2558.839844 C 3189.917969 2558.59375 3186.210938 2557.871094 3182.5625 2556.726562 C 3182.5625 2556.726562 3182.5625 2556.726562 3182.550781 2556.726562 C 3179.726562 2556.074219 3176.582031 2554.730469 3173.253906 2552.875 C 3161.566406 2546.78125 3150.664062 2536.320312 3140.671875 2522.726562 C 3101.835938 2473.964844 3060.550781 2376.890625 3075.089844 2252.804688 C 3075.570312 2247.449219 3076.351562 2241.703125 3077.4375 2235.609375 C 3077.449219 2235.535156 3077.449219 2235.492188 3077.464844 2235.421875 L 3077.464844 2235.433594 C 3098.867188 2115.679688 3233.246094 1861.964844 3302.417969 1789.234375 C 3321.457031 1769.203125 3348.480469 1751.53125 3378.046875 1736.332031 C 3304.300781 1691.160156 3333.796875 1603.246094 3370.734375 1564.902344 C 3413.640625 1520.367188 3483.335938 1395.226562 3502.304688 1360.054688 C 3514.308594 1337.78125 3537.707031 1317.558594 3553.257812 1305.707031 C 3550.839844 1299.902344 3548.710938 1293.75 3546.859375 1287.453125 C 3546.859375 1287.453125 3546.859375 1287.453125 3546.859375 1287.46875 C 3546.859375 1287.46875 3458.949219 1256.8125 3409.542969 1235.449219 C 3401.898438 1250.054688 3391.253906 1277.886719 3378.972656 1330.671875 C 3392.484375 1337.359375 3387.199219 1359.476562 3387.199219 1359.476562 L 3369.535156 1502.550781 L 3308.28125 1489.800781 C 3308.28125 1489.800781 3340.238281 1368.667969 3350.40625 1346.40625 C 3357.542969 1330.773438 3366.8125 1328.660156 3371.71875 1328.777344 C 3374.703125 1312.03125 3384.652344 1262.039062 3401.40625 1231.859375 C 3393.628906 1228.34375 3387.257812 1225.171875 3382.941406 1222.582031 C 3381.640625 1221.988281 3380.507812 1221.238281 3379.554688 1220.339844 C 3379.539062 1220.339844 3379.539062 1220.339844 3379.539062 1220.339844 C 3367.636719 1211.421875 3367.78125 1208.167969 3382.015625 1200.25 L 3530.613281 1117.777344 C 3556.140625 1103.605469 3574.617188 1093.359375 3574.617188 1093.359375 L 3720.175781 1012.582031 C 3724.273438 1010.308594 3729.28125 1010.511719 3733.191406 1013.101562 L 4025.011719 1207.269531 C 4034.441406 1213.535156 4031.339844 1228.125 4020.164062 1230.035156 L 3880.820312 1253.832031 C 3876.15625 1268.566406 3870.175781 1281.476562 3865.121094 1291.042969 C 3900.410156 1334.507812 3937.074219 1392.113281 3959.332031 1424.679688 C 3999.152344 1482.953125 4109.144531 1526.011719 4123.988281 1626.476562 C 4129.734375 1665.351562 4096.546875 1698.28125 4063.210938 1721.003906 C 4103.019531 1738.835938 4141.277344 1760.910156 4166.039062 1786.949219 C 4178.476562 1800.03125 4193.042969 1818.980469 4208.667969 1841.949219 L 4321.367188 1801.363281 L 4334.125 1835.726562 C 4335.195312 1835.652344 4336.238281 1835.582031 4337.265625 1835.535156 C 4338.597656 1835.464844 4339.84375 1836.449219 4340.175781 1837.792969 C 4341.785156 1837.417969 4343.390625 1837.054688 4345 1836.695312 C 4345 1836.695312 4399.15625 1902.550781 4359.753906 1993.910156 C 4359.753906 1993.910156 4339.773438 1993.636719 4296.824219 1993.1875 C 4346.984375 2091 4389.597656 2195.996094 4393.59375 2253.265625 C 4401.183594 2361.953125 4350.617188 2551.5 4274.769531 2556.554688 " fill-opacity="1" fill-rule="nonzero"/></g><path fill="#dc4d4e" d="M 3750.4375 1724.957031 L 3800.84375 1819.238281 C 3868.308594 1760.300781 3895.9375 1683.328125 3900.425781 1669.679688 C 3885.121094 1665.742188 3870.148438 1662.457031 3856.507812 1659.765625 C 3856.492188 1660.445312 3856.273438 1661.125 3855.78125 1661.691406 L 3787.433594 1738.242188 C 3786.871094 1738.867188 3786.089844 1739.214844 3785.261719 1739.214844 C 3785.132812 1739.214844 3785.003906 1739.199219 3784.871094 1739.183594 C 3783.917969 1739.054688 3783.089844 1738.460938 3782.671875 1737.59375 C 3778.90625 1729.921875 3773.953125 1720.308594 3768.972656 1711.265625 Z M 3711.585938 1724.726562 L 3691.675781 1707.585938 C 3686.042969 1717.648438 3680.222656 1728.863281 3675.953125 1737.59375 C 3675.546875 1738.417969 3674.765625 1739.011719 3673.867188 1739.167969 C 3673.691406 1739.199219 3673.519531 1739.214844 3673.34375 1739.214844 C 3672.605469 1739.214844 3671.898438 1738.921875 3671.347656 1738.417969 L 3599.207031 1669.59375 C 3598.207031 1668.636719 3598.089844 1667.164062 3598.769531 1666.019531 L 3570.882812 1671.621094 L 3567.449219 1672.300781 C 3567.738281 1677.0625 3567.898438 1681.75 3567.929688 1686.367188 C 3594.703125 1751.210938 3641.445312 1794.171875 3680.613281 1820.628906 Z M 3816.859375 1465.238281 C 3821.117188 1452.109375 3827.964844 1443.570312 3810.691406 1428.851562 C 3804.175781 1423.277344 3801.046875 1414.78125 3799.683594 1406.355469 C 3782.714844 1413.246094 3770.855469 1429.964844 3771.160156 1449.359375 C 3771.519531 1472.515625 3789.042969 1491.332031 3811.429688 1493.980469 C 3809.820312 1484.761719 3814.195312 1473.5 3816.859375 1465.238281 Z M 3821.1875 1407.949219 C 3818.800781 1407.949219 3816.84375 1406.011719 3816.84375 1403.605469 C 3816.84375 1403.433594 3816.832031 1403.1875 3816.816406 1402.984375 C 3816.597656 1402.984375 3816.382812 1402.957031 3816.164062 1402.957031 C 3815.28125 1402.96875 3814.410156 1403.070312 3813.542969 1403.128906 C 3815.195312 1408.703125 3818.105469 1413.824219 3823.214844 1416.519531 C 3828.3125 1419.222656 3846.921875 1431.238281 3840.273438 1449.808594 C 3833.613281 1468.390625 3837.4375 1474.847656 3848.859375 1480.824219 C 3848.949219 1480.882812 3849.035156 1480.941406 3849.121094 1481 C 3857.59375 1472.5625 3862.777344 1460.835938 3862.589844 1447.957031 C 3862.242188 1425.910156 3846.339844 1407.761719 3825.503906 1403.78125 C 3825.417969 1406.082031 3823.535156 1407.949219 3821.1875 1407.949219 Z M 3615.394531 1456.046875 C 3608.734375 1437.492188 3627.328125 1425.460938 3632.421875 1422.769531 C 3638.5625 1419.515625 3641.546875 1412.828125 3642.949219 1406.011719 C 3641.734375 1405.648438 3640.472656 1405.359375 3639.214844 1405.097656 C 3638.941406 1407.066406 3638.808594 1408.804688 3638.808594 1409.84375 C 3638.824219 1412.234375 3636.867188 1414.1875 3634.464844 1414.1875 C 3632.074219 1414.1875 3630.121094 1412.25 3630.121094 1409.84375 C 3630.121094 1409.253906 3630.148438 1407.066406 3630.527344 1404.15625 C 3630.09375 1404.15625 3629.65625 1404.113281 3629.207031 1404.113281 C 3603.96875 1404.519531 3583.796875 1425.273438 3584.203125 1450.503906 C 3584.449219 1466.324219 3592.691406 1480.128906 3605.011719 1488.132812 C 3605.605469 1487.773438 3606.15625 1487.382812 3606.792969 1487.0625 C 3618.335938 1481.332031 3622.042969 1474.628906 3615.394531 1456.046875 Z M 3638.792969 1471.476562 C 3640.820312 1477.714844 3643.777344 1485.660156 3644.441406 1493.144531 C 3662.816406 1486.992188 3675.9375 1469.507812 3675.632812 1449.113281 C 3675.386719 1433.84375 3667.652344 1420.46875 3655.996094 1412.335938 C 3654.652344 1420.84375 3651.550781 1429.472656 3644.949219 1435.089844 C 3627.6875 1449.808594 3634.539062 1458.347656 3638.792969 1471.476562 Z M 3370.734375 1564.902344 C 3413.640625 1520.367188 3483.335938 1395.226562 3502.304688 1360.054688 C 3514.308594 1337.78125 3537.707031 1317.558594 3553.257812 1305.707031 C 3555.878906 1311.945312 3558.835938 1317.777344 3562.207031 1322.914062 C 3562.207031 1322.914062 3621.375 1243.757812 3724.183594 1247.417969 C 3827.011719 1251.066406 3854.914062 1308.398438 3854.914062 1308.398438 C 3854.914062 1308.398438 3859.417969 1301.839844 3865.121094 1291.042969 C 3900.410156 1334.507812 3937.074219 1392.113281 3959.332031 1424.679688 C 3999.152344 1482.953125 4109.144531 1526.011719 4123.988281 1626.476562 C 4129.734375 1665.351562 4096.546875 1698.28125 4063.210938 1721.003906 C 4010.824219 1697.558594 3955.769531 1681.476562 3925.199219 1673.445312 C 3925.59375 1671.9375 3924.738281 1670.390625 3923.230469 1669.941406 C 3860.429688 1651.457031 3795.675781 1644.003906 3795.039062 1643.917969 C 3793.402344 1643.742188 3792.011719 1644.886719 3791.824219 1646.480469 C 3791.648438 1648.070312 3792.792969 1649.503906 3794.386719 1649.675781 C 3794.761719 1649.734375 3818.378906 1652.457031 3850.742188 1658.636719 L 3785.957031 1731.195312 C 3779.136719 1717.503906 3760.878906 1682.042969 3752.785156 1677.554688 C 3744.386719 1672.894531 3733.496094 1680.175781 3728.976562 1683.707031 C 3724.675781 1680.21875 3714.148438 1672.9375 3705.839844 1677.554688 C 3697.6875 1682.070312 3679.195312 1718.050781 3672.503906 1731.5 L 3603.203125 1665.394531 C 3603.117188 1665.308594 3602.984375 1665.265625 3602.882812 1665.195312 C 3628.222656 1654.671875 3650.191406 1645.640625 3663.179688 1640.3125 L 3663.179688 1653.109375 L 3663.859375 1652.976562 C 3663.859375 1652.976562 3727.285156 1704.851562 3792.429688 1653.5 L 3785.683594 1580.667969 C 3793.980469 1578.132812 3801.957031 1575.09375 3809.460938 1571.316406 C 3823.304688 1564.367188 3834.65625 1555.378906 3843.878906 1543.527344 C 3843.851562 1543.585938 3843.835938 1543.628906 3843.835938 1543.628906 C 3843.835938 1543.628906 3844.269531 1543.046875 3844.964844 1542.050781 C 3848.992188 1536.664062 3852.625 1530.730469 3855.824219 1524.117188 C 3858.476562 1518.949219 3860.964844 1513.234375 3862.589844 1507.542969 C 3862.589844 1507.542969 3862.574219 1507.484375 3862.574219 1507.472656 C 3865.398438 1499.148438 3867.785156 1489.988281 3869.769531 1479.882812 C 3874.214844 1481.101562 3878.921875 1481.636719 3883.773438 1481.273438 C 3906.753906 1479.566406 3924 1459.578125 3922.304688 1436.609375 C 3920.597656 1413.652344 3900.597656 1396.398438 3877.617188 1398.105469 C 3877.167969 1398.136719 3876.75 1398.222656 3876.300781 1398.28125 C 3876.328125 1395.894531 3876.328125 1393.691406 3876.300781 1391.824219 C 3876.15625 1382.808594 3875.460938 1374.109375 3874.246094 1365.757812 C 3859.722656 1370.375 3845.039062 1356.566406 3845.039062 1356.566406 C 3845.980469 1344.4375 3838.984375 1318.066406 3838.984375 1318.066406 C 3840.519531 1331.875 3827.964844 1352.238281 3827.964844 1352.238281 C 3814.6875 1335.78125 3786.246094 1328.761719 3786.246094 1328.761719 L 3789.375 1318.066406 L 3772.855469 1328.761719 C 3758.519531 1318.195312 3727.921875 1318.066406 3727.921875 1318.066406 C 3735.988281 1302.492188 3718.015625 1275.976562 3718.015625 1275.976562 C 3725.675781 1304.519531 3703.085938 1322.914062 3703.085938 1322.914062 C 3688.1875 1321.683594 3663.179688 1322.914062 3663.179688 1322.914062 L 3658.242188 1300.8125 L 3648.4375 1328.761719 C 3626.3125 1322.945312 3603.332031 1342.152344 3603.332031 1342.152344 C 3594.890625 1327.9375 3603.332031 1312.769531 3603.332031 1312.769531 C 3593.949219 1324.144531 3584.191406 1352.617188 3584.191406 1352.617188 C 3575.691406 1360.027344 3569.347656 1360.722656 3565.363281 1359.867188 C 3562.410156 1375.109375 3561.441406 1391.347656 3562.859375 1408.457031 C 3563.25 1413.1875 3564.132812 1420.933594 3565.148438 1429.125 C 3562.597656 1428.851562 3560.023438 1428.777344 3557.386719 1428.980469 C 3533.828125 1430.71875 3516.132812 1451.210938 3517.871094 1474.761719 C 3519.621094 1498.324219 3540.125 1516.011719 3563.683594 1514.261719 C 3569.652344 1513.8125 3575.242188 1512.160156 3580.222656 1509.585938 C 3582.566406 1516.113281 3585.203125 1522.074219 3588.15625 1527.503906 C 3588.15625 1527.503906 3588.15625 1527.53125 3588.15625 1527.53125 C 3593.238281 1545.363281 3613.339844 1558.261719 3613.339844 1558.261719 C 3613.339844 1558.261719 3613.324219 1558.230469 3613.324219 1558.230469 C 3617.277344 1561.605469 3621.492188 1564.859375 3626.039062 1568.03125 C 3637.070312 1575.714844 3649.65625 1580.882812 3663.179688 1584.253906 L 3663.179688 1636.1875 C 3627.179688 1638.867188 3520.621094 1645.945312 3447.539062 1642.0625 C 3358.414062 1637.316406 3370.734375 1564.902344 3370.734375 1564.902344 " fill-opacity="1" fill-rule="nonzero"/><g clip-path="url(#id8)"><path fill="#304850" d="M 3711.109375 1485.109375 C 3720.667969 1489.164062 3737.175781 1494.371094 3751.945312 1471.96875 C 3751.945312 1471.96875 3755.824219 1463.515625 3746.875 1462.371094 C 3737.898438 1461.242188 3730.0625 1467.160156 3711.09375 1466.164062 C 3692.140625 1465.179688 3704.347656 1482.230469 3711.109375 1485.109375 Z M 3634.464844 1414.1875 C 3636.867188 1414.1875 3638.824219 1412.234375 3638.808594 1409.84375 C 3638.808594 1408.804688 3638.941406 1407.066406 3639.214844 1405.097656 C 3639.808594 1400.886719 3641.199219 1395.472656 3644.09375 1392.246094 C 3644.441406 1391.855469 3644.761719 1391.449219 3645.152344 1391.128906 C 3647.222656 1389.453125 3649.859375 1389.003906 3653.21875 1389.726562 C 3654.390625 1389.988281 3655.445312 1390.378906 3656.460938 1390.828125 C 3669.21875 1396.53125 3669.464844 1416.648438 3669.464844 1416.867188 C 3669.480469 1419.269531 3671.417969 1421.191406 3673.808594 1421.191406 C 3673.808594 1421.191406 3673.808594 1421.191406 3673.824219 1421.191406 C 3676.210938 1421.191406 3678.152344 1419.253906 3678.152344 1416.867188 C 3678.152344 1415.605469 3677.90625 1386.195312 3655.054688 1381.230469 C 3647.585938 1379.609375 3642.574219 1382.042969 3639.691406 1384.355469 C 3633.453125 1389.394531 3631.292969 1398.28125 3630.527344 1404.15625 C 3630.148438 1407.066406 3630.121094 1409.253906 3630.121094 1409.84375 C 3630.121094 1412.25 3632.074219 1414.1875 3634.464844 1414.1875 Z M 3810.488281 1384.878906 C 3810.878906 1385.183594 3811.210938 1385.601562 3811.558594 1385.992188 C 3815.585938 1390.464844 3816.714844 1399.121094 3816.816406 1402.984375 C 3816.832031 1403.1875 3816.84375 1403.433594 3816.84375 1403.605469 C 3816.84375 1406.011719 3818.800781 1407.949219 3821.1875 1407.949219 C 3823.535156 1407.949219 3825.417969 1406.082031 3825.503906 1403.78125 C 3825.503906 1403.722656 3825.53125 1403.664062 3825.53125 1403.605469 C 3825.53125 1401.796875 3825.285156 1385.628906 3815.960938 1378.117188 C 3813.078125 1375.789062 3808.054688 1373.355469 3800.597656 1374.992188 C 3777.746094 1379.957031 3777.5 1409.367188 3777.5 1410.613281 C 3777.5 1413.015625 3779.441406 1414.953125 3781.847656 1414.953125 C 3784.234375 1414.953125 3786.191406 1413.015625 3786.191406 1410.613281 C 3786.191406 1410.394531 3786.4375 1390.304688 3799.191406 1384.574219 C 3800.207031 1384.125 3801.265625 1383.734375 3802.453125 1383.488281 C 3805.796875 1382.75 3808.417969 1383.214844 3810.488281 1384.878906 Z M 3724.183594 1247.417969 C 3827.011719 1251.066406 3854.914062 1308.398438 3854.914062 1308.398438 C 3854.914062 1308.398438 3859.417969 1301.839844 3865.121094 1291.042969 C 3870.175781 1281.476562 3876.15625 1268.566406 3880.820312 1253.832031 L 4020.164062 1230.035156 C 4031.339844 1228.125 4034.441406 1213.535156 4025.011719 1207.269531 L 3733.191406 1013.101562 C 3729.28125 1010.511719 3724.273438 1010.308594 3720.175781 1012.582031 L 3574.617188 1093.359375 C 3574.515625 1093.445312 3506.039062 1158.230469 3541.140625 1185.617188 C 3564.554688 1165.453125 3710.140625 1051.890625 3874.882812 1188.394531 C 3876.113281 1189.421875 3876.285156 1191.246094 3875.257812 1192.476562 C 3874.695312 1193.171875 3873.867188 1193.535156 3873.027344 1193.535156 C 3872.375 1193.535156 3871.726562 1193.300781 3871.1875 1192.851562 C 3701.871094 1052.542969 3553.304688 1182.289062 3542.515625 1192.144531 C 3540.257812 1204.460938 3535.753906 1239.851562 3546.859375 1287.453125 C 3548.710938 1293.75 3550.839844 1299.902344 3553.257812 1305.707031 C 3555.878906 1311.945312 3558.835938 1317.777344 3562.207031 1322.914062 C 3562.207031 1322.914062 3621.375 1243.757812 3724.183594 1247.417969 Z M 3297.59375 2195.734375 C 3271.386719 2169.839844 3255.789062 2146.914062 3250.953125 2139.386719 L 3236.878906 2157.625 C 3247.898438 2183.054688 3333.390625 2357.914062 3582.988281 2319.457031 C 3598.074219 2299.640625 3607.402344 2284.949219 3610.804688 2279.363281 C 3556.386719 2293.996094 3507.980469 2294.5625 3465.695312 2286.6875 C 3465.015625 2287.398438 3464.597656 2287.816406 3464.597656 2287.816406 C 3464.597656 2287.816406 3324.296875 2258.304688 3297.59375 2195.734375 Z M 3075.089844 2252.804688 C 3075.757812 2247.128906 3076.539062 2241.398438 3077.4375 2235.609375 C 3076.351562 2241.703125 3075.570312 2247.449219 3075.089844 2252.804688 Z M 3140.671875 2522.726562 C 3150.664062 2536.320312 3161.566406 2546.78125 3173.253906 2552.875 C 3163.636719 2547.519531 3152.269531 2537.304688 3140.671875 2522.726562 Z M 3193.683594 2558.839844 C 3194.8125 2558.925781 3195.972656 2558.96875 3197.175781 2558.984375 C 3192.382812 2558.609375 3187.488281 2557.882812 3182.5625 2556.726562 C 3186.210938 2557.871094 3189.917969 2558.59375 3193.683594 2558.839844 Z M 4239.640625 2186.484375 L 4217.296875 2137.417969 C 4211.460938 2146.449219 4191.738281 2175.167969 4158.332031 2205.257812 C 4092.015625 2291.261719 3978.503906 2287.902344 3978.503906 2287.902344 L 3978.503906 2287.890625 C 3942.15625 2291.59375 3901.742188 2288.972656 3857.332031 2277.003906 C 3860.359375 2282.996094 3869.957031 2300.945312 3887.871094 2325.203125 C 3918.945312 2330.125 4109.695312 2352.457031 4239.640625 2186.484375 Z M 3925.199219 1673.546875 C 3924.824219 1674.804688 3923.664062 1675.613281 3922.421875 1675.613281 C 3922.144531 1675.613281 3921.871094 1675.585938 3921.59375 1675.5 C 3914.542969 1673.414062 3907.449219 1671.488281 3900.425781 1669.679688 C 3895.9375 1683.328125 3868.308594 1760.300781 3800.84375 1819.238281 L 3800.859375 1819.28125 C 3784.234375 1836.320312 3758.5625 1850.445312 3750.554688 1854.640625 C 3750.816406 1855.121094 3750.972656 1855.640625 3750.914062 1856.21875 C 3750.816406 1857.203125 3749.382812 1872.546875 3747.195312 1899.019531 L 3916.65625 1909.730469 C 3925.257812 1865.441406 3944.125 1850.15625 3944.125 1850.15625 C 3959.316406 1834.453125 3974.460938 1850.15625 3974.460938 1850.15625 C 4004.800781 1824.347656 4031.355469 1849.171875 4031.355469 1849.171875 C 4057.898438 1828.691406 4079.402344 1850.15625 4079.402344 1850.15625 C 4116.050781 1844.570312 4122.0625 1864.585938 4122.0625 1864.585938 L 4119.164062 1874.183594 L 4208.667969 1841.949219 C 4193.042969 1818.980469 4178.476562 1800.03125 4166.039062 1786.949219 C 4141.277344 1760.910156 4103.019531 1738.835938 4063.210938 1721.003906 C 4010.824219 1697.558594 3955.769531 1681.476562 3925.199219 1673.445312 C 3925.199219 1673.472656 3925.199219 1673.5 3925.199219 1673.546875 Z M 4393.59375 2253.265625 C 4389.597656 2195.996094 4346.984375 2091 4296.824219 1993.1875 C 4262.433594 1992.839844 4213.273438 1992.375 4147.863281 1991.882812 L 4118.050781 2066.582031 L 4119.570312 2071.824219 L 4125.925781 2080.375 C 4190.4375 2088.84375 4212.765625 2122.335938 4217.875 2131.890625 C 4217.890625 2131.875 4217.90625 2131.859375 4217.933594 2131.847656 C 4219.382812 2131.179688 4221.105469 2131.816406 4221.773438 2133.277344 L 4293.421875 2290.566406 C 4294.085938 2292.015625 4293.449219 2293.734375 4291.988281 2294.402344 C 4291.597656 2294.574219 4291.191406 2294.664062 4290.785156 2294.664062 C 4289.683594 2294.664062 4288.628906 2294.039062 4288.148438 2292.96875 L 4261.375 2234.207031 C 4245.144531 2254.527344 4129.734375 2387.859375 3917.585938 2361.664062 C 3961.082031 2410.222656 4030.398438 2469.40625 4133.847656 2512.234375 C 4135.324219 2512.855469 4136.019531 2514.550781 4135.410156 2516.027344 C 4135.398438 2516.070312 4135.355469 2516.113281 4135.324219 2516.171875 C 4194.289062 2544.453125 4245.695312 2558.492188 4274.769531 2556.554688 C 4350.617188 2551.5 4401.183594 2361.953125 4393.59375 2253.265625 Z M 3882.527344 1464.992188 C 3883.0625 1465.078125 3883.6875 1465.136719 3884.378906 1465.136719 C 3887.015625 1465.136719 3890.5625 1464.339844 3892.691406 1461.445312 C 3895.675781 1457.378906 3894.894531 1450.964844 3890.304688 1441.863281 C 3887.539062 1436.375 3887.03125 1431.699219 3888.796875 1427.96875 C 3891.882812 1421.453125 3901.003906 1419.371094 3901.089844 1419.355469 C 3902.65625 1419.007812 3903.640625 1417.472656 3903.292969 1415.910156 C 3902.960938 1414.347656 3901.425781 1413.363281 3899.859375 1413.695312 C 3899.367188 1413.796875 3887.914062 1416.375 3883.570312 1425.449219 C 3880.992188 1430.890625 3881.5 1437.273438 3885.132812 1444.46875 C 3889.839844 1453.800781 3888.726562 1457.042969 3888.03125 1458.015625 C 3886.785156 1459.707031 3883.46875 1459.273438 3883.46875 1459.273438 C 3881.859375 1459 3880.398438 1460.085938 3880.136719 1461.660156 C 3879.878906 1463.238281 3880.949219 1464.730469 3882.527344 1464.992188 Z M 3562.542969 1486.296875 C 3562.511719 1486.3125 3559.457031 1487.628906 3557.820312 1486.339844 C 3556.894531 1485.617188 3554.910156 1482.808594 3556.894531 1472.515625 C 3558.414062 1464.601562 3557.15625 1458.320312 3553.171875 1453.789062 C 3546.527344 1446.261719 3534.839844 1446.914062 3534.320312 1446.941406 C 3532.726562 1447.042969 3531.511719 1448.417969 3531.613281 1450.011719 C 3531.714844 1451.601562 3533.058594 1452.832031 3534.679688 1452.730469 C 3534.78125 1452.730469 3544.09375 1452.238281 3548.84375 1457.652344 C 3551.566406 1460.75 3552.363281 1465.382812 3551.1875 1471.433594 C 3549.277344 1481.449219 3550.277344 1487.816406 3554.273438 1490.914062 C 3555.96875 1492.230469 3557.9375 1492.679688 3559.789062 1492.679688 C 3561.859375 1492.679688 3563.800781 1492.113281 3565.003906 1491.550781 C 3566.449219 1490.871094 3567.074219 1489.148438 3566.40625 1487.6875 C 3565.726562 1486.253906 3563.988281 1485.617188 3562.542969 1486.296875 Z M 3720.1875 1437.085938 C 3720.40625 1437.101562 3720.609375 1437.101562 3720.824219 1437.101562 C 3727.371094 1437.101562 3735.796875 1432.875 3739.085938 1425.507812 C 3741.488281 1420.109375 3741.996094 1411.277344 3730.757812 1399.859375 C 3726.023438 1395.039062 3723.824219 1389.886719 3724.230469 1384.546875 C 3725.097656 1373.226562 3737.027344 1364.179688 3737.144531 1364.09375 C 3738.433594 1363.136719 3738.695312 1361.316406 3737.738281 1360.039062 C 3736.78125 1358.753906 3734.972656 1358.507812 3733.683594 1359.449219 C 3733.121094 1359.882812 3719.535156 1370.113281 3718.449219 1384.066406 C 3717.914062 1391.175781 3720.652344 1397.847656 3726.617188 1403.925781 C 3733.714844 1411.121094 3736.1875 1417.761719 3733.785156 1423.148438 C 3731.296875 1428.734375 3724.488281 1431.453125 3720.449219 1431.308594 C 3718.914062 1431.265625 3717.496094 1432.484375 3717.421875 1434.074219 C 3717.351562 1435.667969 3718.597656 1437.027344 3720.1875 1437.085938 Z M 3379.539062 1220.339844 C 3380.496094 1221.222656 3381.640625 1221.988281 3382.941406 1222.582031 C 3381.609375 1221.773438 3380.453125 1221.019531 3379.539062 1220.339844 Z M 3382.015625 1200.25 C 3391.6875 1194.894531 3476.816406 1147.636719 3530.613281 1117.777344 Z M 4131.632812 2517.605469 C 3923.085938 2431.238281 3851.683594 2278.757812 3850.988281 2277.222656 C 3850.324219 2275.757812 3850.976562 2274.039062 3852.421875 2273.371094 C 3853.015625 2273.097656 3853.652344 2273.097656 3854.261719 2273.242188 C 3857.839844 2258.261719 3877.53125 2185.777344 3933.976562 2134.058594 C 3925.722656 2094.777344 3917.308594 2045.105469 3913.964844 1998.179688 L 3737.578125 2030.382812 C 3723.273438 2251.300781 3707.867188 2629.734375 3750.25 2848.5625 C 4043.011719 2838.851562 4232.414062 2695.558594 4232.414062 2695.558594 C 4188.179688 2655.769531 4154.28125 2576.6875 4133.675781 2517.648438 C 4133.371094 2517.75 4133.066406 2517.820312 4132.734375 2517.820312 C 4132.371094 2517.820312 4131.996094 2517.75 4131.632812 2517.605469 Z M 3363.421875 2560.808594 C 3367.808594 2553.46875 3371.90625 2546.261719 3375.628906 2539.257812 C 3371.707031 2546.492188 3367.621094 2553.6875 3363.421875 2560.808594 Z M 3744.398438 2848.765625 C 3734.609375 2849.027344 3724.707031 2849.15625 3714.699219 2849.097656 C 3412.988281 2780.449219 3376.296875 2538.054688 3376.296875 2538.011719 C 3385.460938 2520.960938 3393.65625 2503.722656 3400.144531 2486.90625 C 3540.953125 2410.613281 3616.554688 2281.113281 3617.335938 2279.738281 C 3618.132812 2278.363281 3617.652344 2276.597656 3616.261719 2275.789062 C 3615.613281 2275.414062 3614.875 2275.355469 3614.191406 2275.5 C 3610.90625 2261.761719 3594.136719 2200.003906 3548.164062 2150.011719 C 3568.363281 2104.589844 3589.707031 2049.1875 3600.292969 2000.855469 C 3616.785156 1925.535156 3592.878906 1894.691406 3592.878906 1894.691406 C 3581.714844 1875.933594 3563.367188 1887.730469 3563.367188 1887.730469 C 3539.765625 1855.640625 3508.210938 1873.703125 3508.210938 1873.703125 C 3487.085938 1847.679688 3461.238281 1863.628906 3461.238281 1863.628906 C 3426.847656 1849.765625 3416.40625 1867.871094 3416.40625 1867.871094 L 3406.53125 1886.933594 C 3406.414062 1886.875 3406.34375 1886.789062 3406.242188 1886.746094 C 3404.734375 1886.179688 3403.070312 1886.933594 3402.503906 1888.4375 C 3402.417969 1888.671875 3402 1889.785156 3401.40625 1891.476562 C 3391.703125 1885.429688 3382.59375 1885.195312 3373.414062 1890.378906 C 3359.976562 1897.960938 3373.414062 1976.800781 3373.414062 1976.800781 L 3373.878906 2065.394531 L 3364.828125 2080.855469 C 3282.914062 2083.648438 3256.179688 2123.695312 3250.5625 2134.21875 C 3249.347656 2133.625 3247.871094 2133.886719 3247.015625 2135 L 3153.199219 2256.523438 C 3152.214844 2257.796875 3152.460938 2259.621094 3153.71875 2260.589844 C 3154.253906 2260.996094 3154.878906 2261.199219 3155.484375 2261.199219 C 3156.355469 2261.199219 3157.207031 2260.808594 3157.789062 2260.070312 L 3212.84375 2188.757812 C 3340.355469 2383.75 3519.738281 2363.136719 3551.378906 2357.753906 C 3511.367188 2402.609375 3452.144531 2456.566406 3375.050781 2493.246094 C 3373.601562 2493.9375 3372.980469 2495.675781 3373.675781 2497.109375 C 3373.703125 2497.179688 3373.746094 2497.222656 3373.789062 2497.28125 C 3332.277344 2520.601562 3292.699219 2537.59375 3259.570312 2547.78125 C 3129 2508.671875 3077.625 2236.261719 3077.464844 2235.433594 C 3098.867188 2115.679688 3233.246094 1861.964844 3302.417969 1789.234375 C 3321.457031 1769.203125 3348.480469 1751.53125 3378.046875 1736.332031 C 3462.335938 1692.996094 3567.320312 1669.78125 3567.320312 1669.78125 C 3567.320312 1669.78125 3568.609375 1670.460938 3570.882812 1671.621094 L 3567.449219 1672.300781 C 3567.738281 1677.0625 3567.898438 1681.75 3567.929688 1686.367188 C 3594.703125 1751.210938 3641.445312 1794.171875 3680.613281 1820.628906 L 3680.453125 1821.121094 C 3680.453125 1821.121094 3723.230469 1848.679688 3745.28125 1855.207031 C 3745.238281 1855.367188 3745.167969 1855.496094 3745.152344 1855.667969 C 3745.050781 1856.652344 3743.601562 1872.070312 3741.417969 1898.65625 L 3726.109375 1897.6875 L 3719.667969 1941.152344 C 3719.203125 1941.210938 3718.742188 1941.253906 3718.277344 1941.3125 C 3718.277344 1941.3125 3679.425781 1993.488281 3725.5625 2032.585938 L 3731.714844 2031.457031 C 3717.4375 2252.585938 3702.203125 2629.71875 3744.398438 2848.765625 " fill-opacity="1" fill-rule="nonzero"/></g><path fill="#cdeaec" d="M 3887.871094 2325.203125 C 3896.007812 2336.230469 3905.855469 2348.550781 3917.585938 2361.664062 C 4129.734375 2387.859375 4245.144531 2254.527344 4261.375 2234.207031 L 4239.640625 2186.484375 C 4109.695312 2352.457031 3918.945312 2330.125 3887.871094 2325.203125 Z M 3236.878906 2157.625 L 3212.84375 2188.757812 C 3340.355469 2383.75 3519.738281 2363.136719 3551.378906 2357.753906 C 3563.773438 2343.859375 3574.328125 2330.820312 3582.988281 2319.457031 C 3333.390625 2357.914062 3247.898438 2183.054688 3236.878906 2157.625 Z M 3751.945312 1982.996094 C 3752.40625 1953.890625 3726.242188 1940.863281 3725.125 1940.3125 C 3723.691406 1939.617188 3721.957031 1940.226562 3721.261719 1941.660156 C 3720.550781 1943.09375 3721.160156 1944.828125 3722.59375 1945.539062 C 3723.5625 1946.015625 3746.558594 1957.535156 3746.152344 1982.910156 C 3745.730469 2008.644531 3727.6875 2022.625 3727.5 2022.769531 C 3726.226562 2023.726562 3725.980469 2025.550781 3726.9375 2026.824219 C 3727.515625 2027.574219 3728.382812 2027.980469 3729.253906 2027.980469 C 3729.863281 2027.980469 3730.46875 2027.777344 3730.992188 2027.386719 C 3731.832031 2026.765625 3751.480469 2011.65625 3751.945312 1982.996094 Z M 3913.964844 1998.179688 L 3737.578125 2030.382812 L 3731.714844 2031.457031 L 3725.5625 2032.585938 C 3679.425781 1993.488281 3718.277344 1941.3125 3718.277344 1941.3125 C 3718.742188 1941.253906 3719.203125 1941.210938 3719.667969 1941.152344 L 3726.109375 1897.6875 L 3741.417969 1898.65625 L 3747.195312 1899.019531 L 3916.65625 1909.730469 C 3916.078125 1912.695312 3915.542969 1915.792969 3915.066406 1919.035156 C 3915.050781 1918.890625 3915.078125 1918.746094 3915.050781 1918.601562 C 3914.703125 1917.039062 3913.167969 1916.054688 3911.589844 1916.417969 C 3849.65625 1930.472656 3738.707031 1930.875 3737.59375 1930.875 C 3736 1930.875 3734.699219 1932.179688 3734.699219 1933.769531 C 3734.710938 1935.378906 3736 1936.664062 3737.609375 1936.664062 C 3738.738281 1936.664062 3850.308594 1936.261719 3912.863281 1922.074219 C 3913.863281 1921.84375 3914.574219 1921.105469 3914.90625 1920.222656 C 3913.574219 1929.601562 3912.703125 1940.066406 3912.515625 1951.777344 C 3912.269531 1966.582031 3912.820312 1982.214844 3913.964844 1998.179688 Z M 4103.425781 1926.503906 L 4109.738281 1985.890625 L 4148.445312 1990.4375 L 4147.863281 1991.882812 C 4213.273438 1992.375 4262.433594 1992.839844 4296.824219 1993.1875 C 4339.773438 1993.636719 4359.753906 1993.910156 4359.753906 1993.910156 C 4399.15625 1902.550781 4345 1836.695312 4345 1836.695312 C 4343.390625 1837.054688 4341.785156 1837.417969 4340.175781 1837.792969 C 4340.222656 1837.953125 4340.292969 1838.097656 4340.308594 1838.285156 C 4340.394531 1839.878906 4339.164062 1841.238281 4337.554688 1841.328125 C 4274.683594 1844.554688 4126.867188 1882.34375 4125.375 1882.722656 C 4125.128906 1882.792969 4124.898438 1882.808594 4124.652344 1882.808594 C 4123.363281 1882.808594 4122.191406 1881.953125 4121.859375 1880.636719 C 4121.453125 1879.089844 4122.394531 1877.511719 4123.941406 1877.105469 C 4125.40625 1876.730469 4269.066406 1840.007812 4334.125 1835.726562 L 4321.367188 1801.363281 L 4208.667969 1841.949219 L 4119.164062 1874.183594 Z M 3633.625 1513.304688 C 3643.050781 1509.121094 3645.167969 1501.40625 3644.441406 1493.144531 C 3643.777344 1485.660156 3640.820312 1477.714844 3638.792969 1471.476562 C 3634.539062 1458.347656 3627.6875 1449.808594 3644.949219 1435.089844 C 3651.550781 1429.472656 3654.652344 1420.84375 3655.996094 1412.335938 C 3657.300781 1404.144531 3656.953125 1396.039062 3656.460938 1390.828125 C 3655.445312 1390.378906 3654.390625 1389.988281 3653.21875 1389.726562 C 3649.859375 1389.003906 3647.222656 1389.453125 3645.152344 1391.128906 C 3644.761719 1391.449219 3644.441406 1391.855469 3644.09375 1392.246094 C 3644.179688 1396.066406 3643.980469 1401.058594 3642.949219 1406.011719 C 3641.546875 1412.828125 3638.5625 1419.515625 3632.421875 1422.769531 C 3627.328125 1425.460938 3608.734375 1437.492188 3615.394531 1456.046875 C 3622.042969 1474.628906 3618.335938 1481.332031 3606.792969 1487.0625 C 3606.15625 1487.382812 3605.605469 1487.773438 3605.011719 1488.132812 C 3588.300781 1498.410156 3588.15625 1527.171875 3588.15625 1527.503906 C 3588.15625 1527.503906 3588.15625 1527.53125 3588.15625 1527.53125 C 3593.238281 1545.363281 3613.339844 1558.261719 3613.339844 1558.261719 C 3613.339844 1558.261719 3613.324219 1558.230469 3613.324219 1558.230469 C 3612.976562 1557.289062 3602.128906 1527.300781 3633.625 1513.304688 Z M 3849.121094 1481 C 3849.035156 1480.941406 3848.949219 1480.882812 3848.859375 1480.824219 C 3837.4375 1474.847656 3833.613281 1468.390625 3840.273438 1449.808594 C 3846.921875 1431.238281 3828.3125 1419.222656 3823.214844 1416.519531 C 3818.105469 1413.824219 3815.195312 1408.703125 3813.542969 1403.128906 C 3811.777344 1397.167969 3811.457031 1390.683594 3811.558594 1385.992188 C 3811.210938 1385.601562 3810.878906 1385.183594 3810.488281 1384.878906 C 3808.417969 1383.214844 3805.796875 1382.75 3802.453125 1383.488281 C 3801.265625 1383.734375 3800.207031 1384.125 3799.191406 1384.574219 C 3798.6875 1389.855469 3798.339844 1398.0625 3799.683594 1406.355469 C 3801.046875 1414.78125 3804.175781 1423.277344 3810.691406 1428.851562 C 3827.964844 1443.570312 3821.117188 1452.109375 3816.859375 1465.238281 C 3814.195312 1473.5 3809.820312 1484.761719 3811.429688 1493.980469 C 3812.371094 1499.394531 3815.382812 1504.097656 3822.027344 1507.050781 C 3852.84375 1520.757812 3844.53125 1541.976562 3843.878906 1543.527344 C 3843.851562 1543.585938 3843.835938 1543.628906 3843.835938 1543.628906 C 3843.835938 1543.628906 3844.269531 1543.046875 3844.964844 1542.050781 C 3847.035156 1539.125 3851.613281 1532.351562 3855.824219 1524.117188 C 3858.476562 1518.949219 3860.964844 1513.234375 3862.589844 1507.542969 C 3862.589844 1507.542969 3862.574219 1507.484375 3862.574219 1507.472656 C 3862.488281 1506.734375 3860.082031 1487.050781 3849.121094 1481 Z M 3748.308594 1853.066406 C 3749.324219 1853.152344 3750.121094 1853.804688 3750.554688 1854.640625 C 3758.5625 1850.445312 3784.234375 1836.320312 3800.859375 1819.28125 L 3800.84375 1819.238281 L 3750.4375 1724.957031 L 3768.972656 1711.265625 C 3761.253906 1697.238281 3753.480469 1684.558594 3749.976562 1682.621094 C 3744.3125 1679.464844 3734.03125 1686.832031 3730.875 1689.65625 C 3730.757812 1689.769531 3730.613281 1689.8125 3730.46875 1689.902344 C 3730.308594 1689.988281 3730.164062 1690.101562 3729.992188 1690.175781 C 3729.816406 1690.246094 3729.628906 1690.261719 3729.441406 1690.292969 C 3729.269531 1690.335938 3729.09375 1690.378906 3728.90625 1690.378906 C 3728.71875 1690.378906 3728.542969 1690.320312 3728.371094 1690.277344 C 3728.183594 1690.246094 3728.007812 1690.21875 3727.835938 1690.148438 C 3727.644531 1690.074219 3727.5 1689.957031 3727.34375 1689.84375 C 3727.210938 1689.757812 3727.066406 1689.710938 3726.949219 1689.609375 C 3723.765625 1686.601562 3714.25 1679.492188 3708.664062 1682.621094 C 3705.460938 1684.386719 3698.699219 1695.082031 3691.675781 1707.585938 L 3711.585938 1724.726562 L 3680.613281 1820.628906 L 3680.453125 1821.121094 C 3680.453125 1821.121094 3723.230469 1848.679688 3745.28125 1855.207031 C 3745.644531 1853.859375 3746.847656 1852.90625 3748.308594 1853.066406 Z M 3401.40625 1231.859375 C 3403.96875 1233.019531 3406.691406 1234.21875 3409.542969 1235.449219 C 3401.898438 1250.054688 3391.253906 1277.886719 3378.972656 1330.671875 C 3392.484375 1337.359375 3387.199219 1359.476562 3387.199219 1359.476562 L 3369.535156 1502.550781 L 3308.28125 1489.800781 C 3308.28125 1489.800781 3340.238281 1368.667969 3350.40625 1346.40625 C 3357.542969 1330.773438 3366.8125 1328.660156 3371.71875 1328.777344 C 3374.703125 1312.03125 3384.652344 1262.039062 3401.40625 1231.859375 " fill-opacity="1" fill-rule="nonzero"/><g clip-path="url(#id9)"><path fill="#100f0d" d="M 4133.847656 2512.234375 C 4030.398438 2469.40625 3961.082031 2410.222656 3917.585938 2361.664062 C 3905.855469 2348.550781 3896.007812 2336.230469 3887.871094 2325.203125 C 3869.957031 2300.945312 3860.359375 2282.996094 3857.332031 2277.003906 C 3901.742188 2288.972656 3942.15625 2291.59375 3978.503906 2287.890625 C 3978.386719 2287.554688 3956.738281 2227.128906 3944.125 2177.972656 C 3941.058594 2165.976562 3937.523438 2150.980469 3933.976562 2134.058594 C 3877.53125 2185.777344 3857.839844 2258.261719 3854.261719 2273.242188 C 3853.652344 2273.097656 3853.015625 2273.097656 3852.421875 2273.371094 C 3850.976562 2274.039062 3850.324219 2275.757812 3850.988281 2277.222656 C 3851.683594 2278.757812 3923.085938 2431.238281 4131.632812 2517.605469 C 4131.996094 2517.75 4132.371094 2517.820312 4132.734375 2517.820312 C 4133.066406 2517.820312 4133.371094 2517.75 4133.675781 2517.648438 C 4134.382812 2517.402344 4134.992188 2516.878906 4135.324219 2516.171875 C 4135.355469 2516.113281 4135.398438 2516.070312 4135.410156 2516.027344 C 4136.019531 2514.550781 4135.324219 2512.855469 4133.847656 2512.234375 Z M 3077.464844 2235.433594 L 3077.464844 2235.421875 C 3077.449219 2235.492188 3077.449219 2235.535156 3077.4375 2235.609375 C 3076.539062 2241.398438 3075.757812 2247.128906 3075.089844 2252.804688 C 3060.550781 2376.890625 3101.835938 2473.964844 3140.671875 2522.726562 C 3152.269531 2537.304688 3163.636719 2547.519531 3173.253906 2552.875 C 3176.582031 2554.730469 3179.726562 2556.074219 3182.550781 2556.726562 C 3182.5625 2556.726562 3182.5625 2556.726562 3182.5625 2556.726562 C 3187.488281 2557.882812 3192.382812 2558.609375 3197.175781 2558.984375 C 3230.941406 2561.734375 3259.570312 2547.78125 3259.570312 2547.78125 C 3129 2508.671875 3077.625 2236.261719 3077.464844 2235.433594 Z M 3542.515625 1192.144531 C 3553.304688 1182.289062 3701.871094 1052.542969 3871.1875 1192.851562 C 3871.726562 1193.300781 3872.375 1193.535156 3873.027344 1193.535156 C 3873.867188 1193.535156 3874.695312 1193.171875 3875.257812 1192.476562 C 3876.285156 1191.246094 3876.113281 1189.421875 3874.882812 1188.394531 C 3710.140625 1051.890625 3564.554688 1165.453125 3541.140625 1185.617188 C 3506.039062 1158.230469 3574.515625 1093.445312 3574.617188 1093.359375 C 3574.617188 1093.359375 3556.140625 1103.605469 3530.613281 1117.777344 C 3476.816406 1147.636719 3391.6875 1194.894531 3382.015625 1200.25 C 3367.78125 1208.167969 3367.636719 1211.421875 3379.539062 1220.339844 C 3380.453125 1221.019531 3381.609375 1221.773438 3382.941406 1222.582031 C 3387.257812 1225.171875 3393.628906 1228.34375 3401.40625 1231.859375 C 3403.96875 1233.019531 3406.691406 1234.21875 3409.542969 1235.449219 C 3458.949219 1256.8125 3546.859375 1287.46875 3546.859375 1287.46875 C 3546.859375 1287.453125 3546.859375 1287.453125 3546.859375 1287.453125 C 3535.753906 1239.851562 3540.257812 1204.460938 3542.515625 1192.144531 Z M 3376.296875 2538.011719 C 3376.078125 2538.417969 3375.847656 2538.851562 3375.628906 2539.257812 C 3371.90625 2546.261719 3367.808594 2553.46875 3363.421875 2560.808594 C 3323.195312 2628.167969 3259.570312 2705.039062 3259.570312 2705.039062 C 3462.265625 2873.3125 3714.699219 2849.097656 3714.699219 2849.097656 C 3412.988281 2780.449219 3376.296875 2538.054688 3376.296875 2538.011719 Z M 3250.953125 2139.386719 C 3255.789062 2146.914062 3271.386719 2169.839844 3297.59375 2195.734375 C 3297.59375 2195.71875 3297.582031 2195.71875 3297.582031 2195.71875 L 3364.828125 2080.855469 C 3282.914062 2083.648438 3256.179688 2123.695312 3250.5625 2134.21875 C 3249.347656 2133.625 3247.871094 2133.886719 3247.015625 2135 L 3153.199219 2256.523438 C 3152.214844 2257.796875 3152.460938 2259.621094 3153.71875 2260.589844 C 3154.253906 2260.996094 3154.878906 2261.199219 3155.484375 2261.199219 C 3156.355469 2261.199219 3157.207031 2260.808594 3157.789062 2260.070312 L 3212.84375 2188.757812 L 3236.878906 2157.625 Z M 3617.335938 2279.738281 C 3618.132812 2278.363281 3617.652344 2276.597656 3616.261719 2275.789062 C 3615.613281 2275.414062 3614.875 2275.355469 3614.191406 2275.5 C 3610.90625 2261.761719 3594.136719 2200.003906 3548.164062 2150.011719 C 3536.898438 2175.355469 3525.992188 2197.601562 3517.523438 2213.753906 C 3496.527344 2253.789062 3471.113281 2281.085938 3465.695312 2286.6875 C 3507.980469 2294.5625 3556.386719 2293.996094 3610.804688 2279.363281 C 3607.402344 2284.949219 3598.074219 2299.640625 3582.988281 2319.457031 C 3574.328125 2330.820312 3563.773438 2343.859375 3551.378906 2357.753906 C 3511.367188 2402.609375 3452.144531 2456.566406 3375.050781 2493.246094 C 3373.601562 2493.9375 3372.980469 2495.675781 3373.675781 2497.109375 C 3373.703125 2497.179688 3373.746094 2497.222656 3373.789062 2497.28125 C 3374.3125 2498.207031 3375.28125 2498.757812 3376.296875 2498.757812 C 3376.714844 2498.757812 3377.136719 2498.671875 3377.542969 2498.484375 C 3385.273438 2494.792969 3392.773438 2490.914062 3400.144531 2486.90625 C 3540.953125 2410.613281 3616.554688 2281.113281 3617.335938 2279.738281 Z M 4087.234375 1878.03125 C 4087.277344 1878.003906 4088.191406 1877.25 4089.277344 1877.527344 C 4090.015625 1877.726562 4091.957031 1878.710938 4094.027344 1883.863281 C 4094.476562 1884.992188 4095.578125 1885.6875 4096.71875 1885.6875 C 4097.082031 1885.6875 4097.445312 1885.617188 4097.792969 1885.484375 C 4099.28125 1884.894531 4100.007812 1883.199219 4099.414062 1881.722656 C 4097.125 1876.019531 4094.15625 1872.71875 4090.550781 1871.878906 C 4086.582031 1870.941406 4083.71875 1873.414062 4083.398438 1873.691406 C 4082.226562 1874.746094 4082.136719 1876.527344 4083.167969 1877.714844 C 4084.195312 1878.902344 4086.019531 1879.046875 4087.234375 1878.03125 Z M 4046.257812 1872.617188 C 4046.429688 1872.472656 4050.425781 1868.984375 4058.21875 1875.414062 C 4058.753906 1875.859375 4059.40625 1876.09375 4060.054688 1876.09375 C 4060.894531 1876.09375 4061.722656 1875.730469 4062.285156 1875.035156 C 4063.3125 1873.804688 4063.140625 1871.96875 4061.910156 1870.953125 C 4049.890625 1861.023438 4042.503906 1868.160156 4042.203125 1868.480469 C 4041.085938 1869.59375 4041.101562 1871.359375 4042.1875 1872.503906 C 4043.273438 1873.644531 4045.097656 1873.675781 4046.257812 1872.617188 Z M 3995.589844 1876.09375 C 3996.210938 1876.09375 3996.835938 1875.875 3997.371094 1875.46875 C 3997.488281 1875.382812 4008.1875 1867.132812 4014.53125 1872.691406 C 4015.730469 1873.746094 4017.554688 1873.644531 4018.613281 1872.429688 C 4019.671875 1871.230469 4019.554688 1869.40625 4018.351562 1868.347656 C 4008.449219 1859.621094 3994.386719 1870.449219 3993.792969 1870.910156 C 3992.535156 1871.894531 3992.316406 1873.71875 3993.300781 1874.976562 C 3993.882812 1875.703125 3994.734375 1876.09375 3995.589844 1876.09375 Z M 3944.863281 1878.742188 C 3945.632812 1878.742188 3946.398438 1878.4375 3946.964844 1877.84375 C 3947.039062 1877.773438 3954.160156 1870.390625 3959.589844 1874.921875 C 3960.824219 1875.933594 3962.648438 1875.773438 3963.675781 1874.542969 C 3964.6875 1873.3125 3964.53125 1871.488281 3963.296875 1870.460938 C 3955.667969 1864.109375 3946.53125 1869.898438 3942.765625 1873.847656 C 3941.664062 1875.023438 3941.707031 1876.84375 3942.867188 1877.945312 C 3943.429688 1878.480469 3944.15625 1878.742188 3944.863281 1878.742188 Z M 3391.269531 1956.453125 C 3392.875 1956.453125 3394.164062 1955.164062 3394.164062 1953.558594 C 3394.164062 1927.242188 3407.789062 1890.839844 3407.921875 1890.480469 C 3408.441406 1889.089844 3407.804688 1887.597656 3406.53125 1886.933594 C 3406.414062 1886.875 3406.34375 1886.789062 3406.242188 1886.746094 C 3404.734375 1886.179688 3403.070312 1886.933594 3402.503906 1888.4375 C 3402.417969 1888.671875 3402 1889.785156 3401.40625 1891.476562 C 3398.089844 1900.871094 3388.371094 1930.339844 3388.371094 1953.558594 C 3388.371094 1955.164062 3389.675781 1956.453125 3391.269531 1956.453125 Z M 3581.121094 1913.871094 C 3581.148438 1913.824219 3584.449219 1910.757812 3587.984375 1910.671875 C 3589.867188 1910.742188 3591.574219 1911.726562 3593.226562 1913.710938 C 3593.789062 1914.40625 3594.617188 1914.753906 3595.457031 1914.753906 C 3596.105469 1914.753906 3596.757812 1914.535156 3597.308594 1914.085938 C 3598.539062 1913.074219 3598.699219 1911.234375 3597.671875 1910.003906 C 3594.949219 1906.734375 3591.75 1905.011719 3588.1875 1904.882812 C 3582.132812 1904.691406 3577.125 1909.644531 3576.921875 1909.859375 C 3575.820312 1911.019531 3575.863281 1912.855469 3577.023438 1913.957031 C 3578.179688 1915.070312 3580.019531 1915.027344 3581.121094 1913.871094 Z M 3535.765625 1904.1875 C 3535.796875 1904.15625 3537.96875 1901.507812 3540.980469 1901.347656 C 3542.964844 1901.25 3545.105469 1902.277344 3547.265625 1904.433594 C 3547.828125 1904.996094 3548.566406 1905.273438 3549.304688 1905.273438 C 3550.046875 1905.273438 3550.785156 1904.996094 3551.347656 1904.433594 C 3552.492188 1903.289062 3552.492188 1901.449219 3551.347656 1900.335938 C 3547.960938 1896.949219 3544.355469 1895.328125 3540.589844 1895.574219 C 3534.957031 1895.90625 3531.378906 1900.394531 3531.21875 1900.582031 C 3530.25 1901.839844 3530.46875 1903.652344 3531.714844 1904.636719 C 3532.957031 1905.632812 3534.769531 1905.417969 3535.765625 1904.1875 Z M 3493.3125 1891.476562 C 3488.675781 1892.347656 3486.417969 1895.761719 3486.171875 1896.140625 C 3485.332031 1897.484375 3485.738281 1899.234375 3487.054688 1900.089844 C 3488.375 1900.945312 3490.167969 1900.566406 3491.050781 1899.265625 C 3491.09375 1899.191406 3492.226562 1897.542969 3494.441406 1897.167969 C 3496.613281 1896.789062 3499.347656 1897.773438 3502.316406 1900.003906 C 3502.824219 1900.394531 3503.449219 1900.582031 3504.042969 1900.582031 C 3504.925781 1900.582031 3505.792969 1900.175781 3506.359375 1899.425781 C 3507.328125 1898.136719 3507.066406 1896.328125 3505.777344 1895.371094 C 3501.390625 1892.070312 3497.191406 1890.785156 3493.3125 1891.476562 Z M 3448.496094 1905.113281 C 3448.796875 1905.214844 3449.117188 1905.273438 3449.421875 1905.273438 C 3450.625 1905.273438 3451.753906 1904.519531 3452.171875 1903.316406 C 3452.1875 1903.273438 3453.445312 1899.742188 3456.183594 1898.757812 C 3457.863281 1898.152344 3459.964844 1898.628906 3462.453125 1900.148438 C 3463.800781 1900.988281 3465.597656 1900.554688 3466.4375 1899.191406 C 3467.277344 1897.832031 3466.839844 1896.050781 3465.480469 1895.210938 C 3461.410156 1892.722656 3457.617188 1892.085938 3454.183594 1893.332031 C 3448.898438 1895.242188 3446.902344 1900.828125 3446.683594 1901.449219 C 3446.175781 1902.96875 3446.988281 1904.589844 3448.496094 1905.113281 Z M 4123.941406 1877.105469 C 4122.394531 1877.511719 4121.453125 1879.089844 4121.859375 1880.636719 C 4122.191406 1881.953125 4123.363281 1882.808594 4124.652344 1882.808594 C 4124.898438 1882.808594 4125.128906 1882.792969 4125.375 1882.722656 C 4126.867188 1882.34375 4274.683594 1844.554688 4337.554688 1841.328125 C 4339.164062 1841.238281 4340.394531 1839.878906 4340.308594 1838.285156 C 4340.292969 1838.097656 4340.222656 1837.953125 4340.175781 1837.792969 C 4339.84375 1836.449219 4338.597656 1835.464844 4337.265625 1835.535156 C 4336.238281 1835.582031 4335.195312 1835.652344 4334.125 1835.726562 C 4269.066406 1840.007812 4125.40625 1876.730469 4123.941406 1877.105469 Z M 3911.589844 1916.417969 C 3849.65625 1930.472656 3738.707031 1930.875 3737.59375 1930.875 C 3736 1930.875 3734.699219 1932.179688 3734.699219 1933.769531 C 3734.710938 1935.378906 3736 1936.664062 3737.609375 1936.664062 C 3738.738281 1936.664062 3850.308594 1936.261719 3912.863281 1922.074219 C 3913.863281 1921.84375 3914.574219 1921.105469 3914.90625 1920.222656 C 3914.949219 1919.832031 3915.007812 1919.425781 3915.066406 1919.035156 C 3915.050781 1918.890625 3915.078125 1918.746094 3915.050781 1918.601562 C 3914.703125 1917.039062 3913.167969 1916.054688 3911.589844 1916.417969 Z M 3725.125 1940.3125 C 3723.691406 1939.617188 3721.957031 1940.226562 3721.261719 1941.660156 C 3720.550781 1943.09375 3721.160156 1944.828125 3722.59375 1945.539062 C 3723.5625 1946.015625 3746.558594 1957.535156 3746.152344 1982.910156 C 3745.730469 2008.644531 3727.6875 2022.625 3727.5 2022.769531 C 3726.226562 2023.726562 3725.980469 2025.550781 3726.9375 2026.824219 C 3727.515625 2027.574219 3728.382812 2027.980469 3729.253906 2027.980469 C 3729.863281 2027.980469 3730.46875 2027.777344 3730.992188 2027.386719 C 3731.832031 2026.765625 3751.480469 2011.65625 3751.945312 1982.996094 C 3752.40625 1953.890625 3726.242188 1940.863281 3725.125 1940.3125 Z M 3750.914062 1856.21875 C 3750.972656 1855.640625 3750.816406 1855.121094 3750.554688 1854.640625 C 3750.121094 1853.804688 3749.324219 1853.152344 3748.308594 1853.066406 C 3746.847656 1852.90625 3745.644531 1853.859375 3745.28125 1855.207031 C 3745.238281 1855.367188 3745.167969 1855.496094 3745.152344 1855.667969 C 3745.050781 1856.652344 3743.601562 1872.070312 3741.417969 1898.65625 L 3747.195312 1899.019531 C 3749.382812 1872.546875 3750.816406 1857.203125 3750.914062 1856.21875 Z M 3737.578125 2030.382812 L 3731.714844 2031.457031 C 3717.4375 2252.585938 3702.203125 2629.71875 3744.398438 2848.765625 C 3744.457031 2849.070312 3744.515625 2849.359375 3744.558594 2849.648438 C 3744.835938 2851.039062 3746.050781 2852.007812 3747.410156 2852.007812 C 3747.585938 2852.007812 3747.773438 2851.980469 3747.960938 2851.949219 C 3749.527344 2851.644531 3750.554688 2850.140625 3750.25 2848.5625 C 3707.867188 2629.734375 3723.273438 2251.300781 3737.578125 2030.382812 Z M 4158.332031 2205.257812 C 4191.738281 2175.167969 4211.460938 2146.449219 4217.296875 2137.417969 L 4239.640625 2186.484375 L 4261.375 2234.207031 L 4288.148438 2292.96875 C 4288.628906 2294.039062 4289.683594 2294.664062 4290.785156 2294.664062 C 4291.191406 2294.664062 4291.597656 2294.574219 4291.988281 2294.402344 C 4293.449219 2293.734375 4294.085938 2292.015625 4293.421875 2290.566406 L 4221.773438 2133.277344 C 4221.105469 2131.816406 4219.382812 2131.179688 4217.933594 2131.847656 C 4217.90625 2131.859375 4217.890625 2131.875 4217.875 2131.890625 C 4212.765625 2122.335938 4190.4375 2088.84375 4125.925781 2080.375 C 4124.59375 2080.203125 4123.277344 2080.015625 4121.902344 2079.855469 Z M 3772.855469 1584.269531 C 3701.4375 1606.199219 3663.179688 1584.269531 3663.179688 1584.269531 L 3663.179688 1632.046875 C 3750.65625 1650.183594 3772.855469 1584.269531 3772.855469 1584.269531 Z M 3567.320312 1669.78125 C 3567.320312 1669.78125 3462.335938 1692.996094 3378.046875 1736.332031 C 3304.300781 1691.160156 3333.796875 1603.246094 3370.734375 1564.902344 C 3370.734375 1564.902344 3358.414062 1637.316406 3447.539062 1642.0625 C 3520.621094 1645.945312 3627.179688 1638.867188 3663.179688 1636.1875 L 3663.179688 1640.3125 C 3650.191406 1645.640625 3628.222656 1654.671875 3602.882812 1665.195312 C 3602.984375 1665.265625 3603.117188 1665.308594 3603.203125 1665.394531 L 3672.503906 1731.5 C 3679.195312 1718.050781 3697.6875 1682.070312 3705.839844 1677.554688 C 3714.148438 1672.9375 3724.675781 1680.21875 3728.976562 1683.707031 C 3733.496094 1680.175781 3744.386719 1672.894531 3752.785156 1677.554688 C 3760.878906 1682.042969 3779.136719 1717.503906 3785.957031 1731.195312 L 3850.742188 1658.636719 C 3818.378906 1652.457031 3794.761719 1649.734375 3794.386719 1649.675781 C 3792.792969 1649.503906 3791.648438 1648.070312 3791.824219 1646.480469 C 3792.011719 1644.886719 3793.402344 1643.742188 3795.039062 1643.917969 C 3795.675781 1644.003906 3860.429688 1651.457031 3923.230469 1669.941406 C 3924.738281 1670.390625 3925.59375 1671.9375 3925.199219 1673.445312 C 3925.199219 1673.472656 3925.199219 1673.5 3925.199219 1673.546875 C 3924.824219 1674.804688 3923.664062 1675.613281 3922.421875 1675.613281 C 3922.144531 1675.613281 3921.871094 1675.585938 3921.59375 1675.5 C 3914.542969 1673.414062 3907.449219 1671.488281 3900.425781 1669.679688 C 3885.121094 1665.742188 3870.148438 1662.457031 3856.507812 1659.765625 C 3856.492188 1660.445312 3856.273438 1661.125 3855.78125 1661.691406 L 3787.433594 1738.242188 C 3786.871094 1738.867188 3786.089844 1739.214844 3785.261719 1739.214844 C 3785.132812 1739.214844 3785.003906 1739.199219 3784.871094 1739.183594 C 3783.917969 1739.054688 3783.089844 1738.460938 3782.671875 1737.59375 C 3778.90625 1729.921875 3773.953125 1720.308594 3768.972656 1711.265625 C 3761.253906 1697.238281 3753.480469 1684.558594 3749.976562 1682.621094 C 3744.3125 1679.464844 3734.03125 1686.832031 3730.875 1689.65625 C 3730.757812 1689.769531 3730.613281 1689.8125 3730.46875 1689.902344 C 3730.308594 1689.988281 3730.164062 1690.101562 3729.992188 1690.175781 C 3729.816406 1690.246094 3729.628906 1690.261719 3729.441406 1690.292969 C 3729.269531 1690.335938 3729.09375 1690.378906 3728.90625 1690.378906 C 3728.71875 1690.378906 3728.542969 1690.320312 3728.371094 1690.277344 C 3728.183594 1690.246094 3728.007812 1690.21875 3727.835938 1690.148438 C 3727.644531 1690.074219 3727.5 1689.957031 3727.34375 1689.84375 C 3727.210938 1689.757812 3727.066406 1689.710938 3726.949219 1689.609375 C 3723.765625 1686.601562 3714.25 1679.492188 3708.664062 1682.621094 C 3705.460938 1684.386719 3698.699219 1695.082031 3691.675781 1707.585938 C 3686.042969 1717.648438 3680.222656 1728.863281 3675.953125 1737.59375 C 3675.546875 1738.417969 3674.765625 1739.011719 3673.867188 1739.167969 C 3673.691406 1739.199219 3673.519531 1739.214844 3673.34375 1739.214844 C 3672.605469 1739.214844 3671.898438 1738.921875 3671.347656 1738.417969 L 3599.207031 1669.59375 C 3598.207031 1668.636719 3598.089844 1667.164062 3598.769531 1666.019531 L 3570.882812 1671.621094 C 3568.609375 1670.460938 3567.320312 1669.78125 3567.320312 1669.78125 " fill-opacity="1" fill-rule="nonzero"/></g></svg>